<svg xmlns="http://www.w3.org/2000/svg" xmlns:xlink="http://www.w3.org/1999/xlink" x="0" y="0" enable-background="new 0 0 5073.988 4598.724" version="1.1" viewBox="0 0 5073.988 4598.724" xml:space="preserve"><switch><g><g id="Antenna_Back"><g id="Antenna_Back_2_"><path fill="#FF570B" d="M3475.495,1500.027c0,0-311.207-812.854-875.56-1270.375c0,0,422.684,675.83,769.889,1213.475"/><path fill="#1D1D1B" d="M3469.413,1502.367c-5.969-14.93-12.298-29.873-18.686-44.726c-6.415-14.858-12.953-29.669-19.604-44.43 c-13.306-29.521-27.021-58.862-41.1-88.026c-28.132-58.341-57.716-115.975-88.545-172.912 c-30.827-56.94-62.997-113.135-96.487-168.506c-8.344-13.86-16.854-27.618-25.348-41.383l-12.888-20.555 c-4.279-6.862-8.68-13.646-13.013-20.472c-17.453-27.229-35.142-54.302-53.322-81.035 c-72.523-107.041-150.767-210.169-235.922-307.043l-7.974-9.088c-2.655-3.032-5.382-5.998-8.069-9l-16.181-17.958 c-10.972-11.799-21.796-23.734-32.971-35.331l-8.324-8.751c-2.768-2.924-5.546-5.837-8.377-8.698l-16.892-17.256 c-2.797-2.894-5.668-5.713-8.524-8.546l-8.57-8.499l-8.568-8.498c-2.854-2.834-5.785-5.589-8.674-8.387l-17.391-16.723 l-17.645-16.441c-2.953-2.726-5.852-5.511-8.849-8.188l-8.952-8.071l-8.951-8.071c-2.979-2.695-5.958-5.39-9.004-8.007 l-18.164-15.829c-3.008-2.66-6.087-5.235-9.162-7.815l-9.215-7.75l-9.213-7.75c-3.061-2.595-6.218-5.071-9.322-7.613 l-18.695-15.155l-0.007-0.006l30.803-27.248l46.825,76.627l46.901,76.588l93.951,153.098l46.976,76.551 c15.625,25.539,31.404,50.979,47.129,76.455l94.409,152.819l94.412,152.824l23.605,38.205l23.789,38.087l47.578,76.175 l190.325,304.721l0.017,0.027c1.283,2.055,0.658,4.761-1.397,6.044c-2.025,1.265-4.685,0.671-5.99-1.312l-197.282-300.324 l-49.324-75.086l-24.663-37.544l-24.478-37.66l-97.904-150.646l-97.907-150.652c-16.309-25.115-32.671-50.196-48.88-75.375 l-48.728-75.471l-97.458-150.945l-48.662-75.523l-48.594-75.574c-6.214-9.664-3.417-22.536,6.247-28.75 c7.729-4.97,17.51-4.176,24.296,1.285l0.26,0.217l0.007,0.006l18.832,15.848c3.125,2.656,6.305,5.249,9.384,7.957l9.266,8.089 l9.265,8.089c3.091,2.693,6.186,5.381,9.206,8.151l18.235,16.491c3.057,2.729,6.044,5.531,9.031,8.334l8.973,8.395l8.971,8.394 c3.003,2.785,5.904,5.674,8.86,8.506l17.658,17.072l17.382,17.34c2.886,2.9,5.815,5.758,8.665,8.693l8.553,8.8l8.552,8.799 c2.85,2.934,5.714,5.853,8.502,8.844l16.835,17.843c2.822,2.959,5.588,5.968,8.343,8.987l8.286,9.038 c11.125,11.981,21.882,24.286,32.786,36.456l16.067,18.504c2.667,3.093,5.375,6.15,8.008,9.271l7.909,9.354 c84.447,99.715,161.492,205.277,232.577,314.467c17.821,27.271,35.132,54.862,52.196,82.593 c4.236,6.952,8.539,13.862,12.719,20.846l12.588,20.923c8.292,14.008,16.598,28.005,24.734,42.101 c32.66,56.313,63.955,113.392,93.872,171.166c29.92,57.772,58.561,116.192,85.729,175.288 c13.597,29.541,26.824,59.252,39.641,89.144c12.79,29.927,25.248,59.905,36.882,90.44c1.281,3.363-0.406,7.128-3.769,8.409 c-3.328,1.268-7.049-0.371-8.368-3.664L3469.413,1502.367z"/></g><linearGradient id="Shadow_1_" x1="5119.103" x2="4778.98" y1="1059.07" y2="700.379" gradientTransform="matrix(-1 0 0 1 7984.124 0)" gradientUnits="userSpaceOnUse"><stop offset=".004" style="stop-color:#1d1d1b"/><stop offset="1" style="stop-color:#231f20;stop-opacity:0"/></linearGradient><path id="Shadow_3_" fill="url(#Shadow_1_)" d="M3387.868,1453.007c0,0-575.459-1029.601-712.7-1139.046l-3.631,26.572 l698.287,1102.595L3387.868,1453.007z"/></g><g id="Arm_Back"><path id="Arm_Back_Shape_1_" fill="#FF570B" stroke="#1D1D1B" stroke-linecap="round" stroke-linejoin="round" stroke-miterlimit="10" stroke-width="43.386" d="M3170.28,2842.794c-4.052,3.177,426.56,270.831,350.921,759.976c-20.732,134.067-108.234,244.338-187.042,294.532 c-136.125,86.7-254.215,34.868-285.485-64.284c-31.27-99.152,33.007-112.92,100.76-441.258s-27.796-455.155-27.796-455.155"/><path id="Arm_Back_Shape_4_" fill="none" stroke="#1D1D1B" stroke-linecap="round" stroke-linejoin="round" stroke-miterlimit="10" stroke-width="43.386" d="M3170.28,2842.794c-4.052,3.177,426.56,270.831,350.921,759.976c-20.732,134.067-108.234,244.338-187.042,294.532 c-136.125,86.7-254.215,34.868-285.485-64.284c-31.27-99.152,33.007-112.92,100.76-441.258s-27.796-455.155-27.796-455.155"/><g id="Arm_Back_Shadow_1_"><defs><path id="Arm_Back_Shape_2_" d="M3170.28,2842.794c-4.052,3.177,426.56,270.831,350.921,759.976 c-20.732,134.067-108.234,244.338-187.042,294.532c-136.125,86.7-254.215,34.868-285.485-64.284 c-31.27-99.152,33.007-112.92,100.76-441.258s-27.796-455.155-27.796-455.155"/></defs><clipPath id="Arm_Back_Shape_3_"><use overflow="visible" xlink:href="#Arm_Back_Shape_2_"/></clipPath><linearGradient id="Arm_Back_Shadow_2_" x1="4692.161" x2="4696.157" y1="4044.547" y2="3737.415" gradientTransform="matrix(-1 0 0 1 7984.124 0)" gradientUnits="userSpaceOnUse"><stop offset=".004" style="stop-color:#1d1d1b"/><stop offset="1" style="stop-color:#231f20;stop-opacity:0"/></linearGradient><path id="Arm_Back_Shadow" fill="url(#Arm_Back_Shadow_2_)" d="M3437.234,3788.428 c-252.478,57.908-337.603-32.139-367.135-76.438c0,0-112.075,236.134,170.382,215.352 C3355.005,3890.346,3689.712,3730.52,3437.234,3788.428z" clip-path="url(#Arm_Back_Shape_3_)"/></g></g><g id="Glowing_Wings"><linearGradient id="Wings_2_" x1="5604.248" x2="7594.725" y1="2857.826" y2="2857.826" gradientTransform="matrix(-1 0 0 1 7984.124 0)" gradientUnits="userSpaceOnUse"><stop offset=".079" style="stop-color:#ffed00;stop-opacity:0"/><stop offset=".733" style="stop-color:#fcea10"/></linearGradient><path id="Wings_1_" fill="url(#Wings_2_)" stroke="#1D1D1B" stroke-linecap="round" stroke-linejoin="round" stroke-miterlimit="10" stroke-width="27.796" d="M2453.444,3529.84c139.205-393.454,131.388-831.237,131.388-831.237c-9.447-3.549-534.462-174.227-545.699-178.396 c-270.485-100.351-1040.485-370.241-1397.015-330.416c0,0,192.763,383.203,1309.856,810.532c0,0-919.686,4.645-1054.388,27.869 S1667.572,3476.884,2453.444,3529.84z"/></g><g id="Tail"><radialGradient id="Tail_Trail_of_Light_2_" cx="2732.561" cy="4127.256" r="2113.376" gradientUnits="userSpaceOnUse"><stop offset="0" style="stop-color:#ffed00"/><stop offset="1" style="stop-color:#ffed00;stop-opacity:0"/></radialGradient><path id="Tail_Trail_of_Light_1_" fill="url(#Tail_Trail_of_Light_2_)" d="M763.24,3531.071 c0,0,518.166,319.973,1229.748,210.132c0,0,233.829,449.578,392.044,489.132c0,0-1514.339,74.403-1960.868-407.945 C354.065,3746.668,449.806,3465.747,763.24,3531.071z"/><g id="Tail_Line_1_1_"><linearGradient id="SVGID_1_" x1="2080.387" x2="884.632" y1="3653.515" y2="3718.707" gradientUnits="userSpaceOnUse"><stop offset="0" style="stop-color:#1d1d1b"/><stop offset=".021" style="stop-color:#3b3917"/><stop offset=".067" style="stop-color:#767110"/><stop offset=".111" style="stop-color:#a79f0b"/><stop offset=".153" style="stop-color:#cdc306"/><stop offset=".191" style="stop-color:#e9dd03"/><stop offset=".225" style="stop-color:#f9ec01"/><stop offset=".25" style="stop-color:#fff200"/><stop offset=".732" style="stop-color:#ffed00"/><stop offset=".746" style="stop-color:#ffed00"/><stop offset="1" style="stop-color:#fff"/></linearGradient><path fill="url(#SVGID_1_)" d="M2067.32,3765.303c0,0-1.191,0.202-3.5,0.594c-2.448,0.423-5.803,0.924-10.242,1.606 c-8.825,1.28-21.708,3.036-38.068,4.859c-4.091,0.468-8.399,0.878-12.917,1.354c-2.259,0.232-4.57,0.47-6.933,0.713 c-2.362,0.214-4.776,0.432-7.24,0.656c-4.927,0.437-10.055,0.891-15.374,1.362c-5.319,0.403-10.83,0.821-16.524,1.253 c-22.774,1.6-48.463,3.11-76.488,3.912c-14.009,0.55-28.606,0.677-43.704,0.956c-7.55,0.106-15.227,0.045-23.021,0.076 c-7.794,0.007-15.705,0.057-23.724-0.117c-8.017-0.121-16.143-0.244-24.37-0.368c-8.225-0.144-16.545-0.493-24.956-0.734 c-16.826-0.407-33.991-1.394-51.446-2.224c-2.182-0.108-4.368-0.215-6.558-0.323c-2.189-0.146-4.382-0.292-6.579-0.439 c-4.394-0.293-8.805-0.587-13.232-0.883c-4.426-0.295-8.868-0.592-13.324-0.89c-4.455-0.311-8.929-0.555-13.406-0.972 c-8.955-0.761-17.965-1.527-27.02-2.297c-4.526-0.39-9.063-0.78-13.61-1.171c-4.54-0.471-9.09-0.944-13.649-1.417 c-9.116-0.947-18.268-1.898-27.447-2.852c-4.593-0.435-9.172-1.074-13.765-1.62c-4.591-0.566-9.188-1.133-13.789-1.7 c-4.6-0.567-9.205-1.135-13.813-1.704c-4.605-0.592-9.225-1.079-13.822-1.782c-9.202-1.32-18.412-2.641-27.623-3.961 c-36.833-5.304-73.494-11.668-109.451-18.502c-9.011-1.589-17.923-3.509-26.802-5.349c-8.877-1.844-17.709-3.679-26.488-5.503 c-8.794-1.743-17.463-3.817-26.085-5.799c-8.619-1.988-17.176-3.962-25.662-5.92c-4.241-0.984-8.464-1.965-12.668-2.941 c-4.184-1.064-8.349-2.124-12.494-3.178c-8.288-2.109-16.497-4.197-24.618-6.263c-4.059-1.033-8.097-2.06-12.111-3.082 c-2.005-0.518-4.012-1.003-5.999-1.544c-1.984-0.553-3.962-1.105-5.933-1.655c-7.886-2.2-15.676-4.373-23.36-6.517 c-7.682-2.144-15.26-4.258-22.724-6.34c-3.742-1.002-7.406-2.178-11.059-3.276c-3.649-1.111-7.269-2.213-10.859-3.306 c-7.177-2.185-14.234-4.334-21.16-6.443c-3.462-1.054-6.892-2.099-10.288-3.133c-3.388-1.059-6.775-2-10.067-3.133 c-13.21-4.371-25.869-8.56-37.909-12.544c-6.018-1.991-11.881-3.931-17.58-5.817c-5.653-2.024-11.144-3.99-16.465-5.895 c-10.637-3.812-20.591-7.379-29.796-10.677c-4.6-1.652-9.013-3.236-13.229-4.75c-4.18-1.616-8.165-3.158-11.948-4.621 c-30.248-11.7-47.533-18.386-47.533-18.386c-0.645-0.249-0.965-0.974-0.716-1.618c0.244-0.63,0.942-0.95,1.576-0.731 l0.032,0.011c0,0,17.482,6.082,48.076,16.725c3.823,1.33,7.85,2.731,12.073,4.2c4.259,1.366,8.716,2.796,13.363,4.286 c9.292,2.974,19.341,6.19,30.078,9.627c5.367,1.717,10.906,3.489,16.609,5.313c5.746,1.685,11.657,3.418,17.724,5.198 c12.129,3.557,24.882,7.297,38.189,11.2c3.314,1.015,6.723,1.837,10.133,2.776c3.418,0.914,6.869,1.837,10.353,2.768 c6.967,1.863,14.064,3.76,21.284,5.691c3.609,0.965,7.249,1.938,10.917,2.919c3.672,0.968,7.355,2.013,11.115,2.882 c7.498,1.817,15.11,3.662,22.828,5.532c7.715,1.87,15.535,3.765,23.451,5.684c1.979,0.479,3.963,0.961,5.954,1.443 c1.994,0.47,4.007,0.884,6.019,1.331c4.026,0.879,8.076,1.762,12.148,2.651c8.141,1.776,16.37,3.572,24.679,5.385 c4.153,0.906,8.326,1.817,12.518,2.732c4.211,0.826,8.44,1.656,12.688,2.49c8.495,1.655,17.06,3.324,25.688,5.005 c8.627,1.674,17.299,3.438,26.092,4.868c8.774,1.511,17.602,3.031,26.474,4.559c8.871,1.524,17.773,3.125,26.768,4.394 c35.897,5.554,72.441,10.615,109.095,14.615c9.162,0.995,18.325,1.99,27.478,2.984c4.571,0.541,9.164,0.865,13.741,1.294 c4.579,0.406,9.155,0.812,13.726,1.217c4.57,0.405,9.136,0.81,13.697,1.215c4.562,0.384,9.109,0.862,13.668,1.135 c9.108,0.632,18.189,1.261,27.234,1.888c4.521,0.314,9.034,0.627,13.536,0.939c4.507,0.232,9.004,0.464,13.49,0.695 c8.97,0.454,17.895,0.905,26.766,1.354c4.433,0.261,8.861,0.35,13.27,0.505c4.41,0.143,8.805,0.285,13.184,0.427 c4.378,0.142,8.741,0.283,13.087,0.424c2.173,0.07,4.341,0.141,6.505,0.211c2.165,0.032,4.326,0.064,6.482,0.096 c17.25,0.227,34.204,0.622,50.801,0.452c8.297-0.047,16.504,0.018,24.609-0.119c8.104-0.156,16.109-0.31,24.006-0.461 c7.897-0.098,15.68-0.415,23.345-0.686c7.665-0.293,15.215-0.491,22.632-0.85c14.83-0.785,29.162-1.399,42.888-2.412 c27.474-1.729,52.577-4.073,74.768-6.399c5.543-0.612,10.908-1.204,16.087-1.776c5.165-0.637,10.145-1.251,14.929-1.841 c2.391-0.299,4.733-0.592,7.025-0.879c2.286-0.315,4.522-0.623,6.707-0.925c4.367-0.612,8.543-1.154,12.484-1.743 c15.784-2.31,28.071-4.419,36.383-5.915c4.118-0.779,7.327-1.372,9.286-1.783c2.101-0.431,3.185-0.653,3.185-0.653l0.276-0.057 c11.675-2.394,23.081,5.13,25.475,16.805s-5.129,23.081-16.805,25.475C2067.832,3765.21,2067.53,3765.266,2067.32,3765.303z"/></g><g id="Tail_Line_2_1_"><linearGradient id="SVGID_2_" x1="2599.741" x2="405.407" y1="3971.613" y2="4091.247" gradientUnits="userSpaceOnUse"><stop offset=".031" style="stop-color:#1d1d1b"/><stop offset=".038" style="stop-color:#2b2a19"/><stop offset=".07" style="stop-color:#635f13"/><stop offset=".102" style="stop-color:#928c0d"/><stop offset=".133" style="stop-color:#bab108"/><stop offset=".164" style="stop-color:#d8cd05"/><stop offset=".194" style="stop-color:#eee202"/><stop offset=".223" style="stop-color:#fbee01"/><stop offset=".25" style="stop-color:#fff200"/><stop offset=".732" style="stop-color:#ffed00"/><stop offset=".746" style="stop-color:#ffed00"/><stop offset="1" style="stop-color:#fff"/></linearGradient><path fill="url(#SVGID_2_)" d="M2589.765,4218.119c0,0-1.712,0.157-5.03,0.461c-4.266,0.359-10.596,0.891-18.852,1.586 c-16.512,1.35-40.707,3.178-71.5,5.173c-30.792,2.001-68.183,4.128-111.084,6.045c-42.901,1.92-91.311,3.664-144.133,4.79 c-52.821,1.132-110.052,1.766-170.58,1.451c-60.527-0.328-124.349-1.536-190.331-3.924 c-65.981-2.391-134.119-6.1-203.256-11.206c-17.289-1.196-34.626-2.711-52.02-4.118c-8.699-0.679-17.4-1.508-26.114-2.298 c-8.713-0.795-17.437-1.592-26.169-2.389c-8.725-0.875-17.46-1.752-26.2-2.629c-8.737-0.908-17.49-1.707-26.229-2.707 c-8.741-0.971-17.487-1.941-26.235-2.913l-13.122-1.458l-13.109-1.594c-69.929-8.367-139.66-18.427-207.969-30.29l-6.404-1.092 l-6.385-1.167c-4.254-0.777-8.504-1.554-12.749-2.33c-8.489-1.551-16.959-3.099-25.407-4.644 c-8.428-1.659-16.835-3.314-25.218-4.965c-4.191-0.825-8.377-1.649-12.556-2.473c-4.18-0.818-8.354-1.635-12.505-2.54 c-8.31-1.761-16.595-3.517-24.853-5.267c-4.128-0.875-8.25-1.749-12.364-2.621c-4.117-0.858-8.201-1.846-12.291-2.76 c-8.174-1.862-16.318-3.717-24.431-5.565c-4.053-0.937-8.11-1.818-12.138-2.795c-4.026-0.984-8.043-1.967-12.052-2.947 c-64.185-15.504-125.684-32.764-183.266-51.415c-57.587-18.633-111.243-38.673-159.876-59.269 c-6.075-2.583-12.088-5.139-18.034-7.667c-1.486-0.635-2.967-1.267-4.444-1.898c-1.462-0.666-2.92-1.331-4.375-1.993 c-2.908-1.325-5.799-2.643-8.674-3.953c-5.749-2.62-11.431-5.21-17.045-7.769c-2.806-1.28-5.596-2.551-8.368-3.815 c-2.738-1.339-5.458-2.669-8.161-3.99c-5.405-2.643-10.741-5.252-16.006-7.826c-2.632-1.287-5.246-2.565-7.841-3.834 c-2.584-1.293-5.199-2.476-7.705-3.837c-10.09-5.298-19.891-10.444-29.388-15.429c-2.363-1.267-4.752-2.437-7.039-3.755 c-2.298-1.297-4.577-2.583-6.836-3.858c-4.518-2.55-8.96-5.057-13.324-7.519c-4.362-2.462-8.646-4.88-12.849-7.252 c-4.176-2.419-8.188-4.94-12.165-7.33c-7.93-4.817-15.537-9.438-22.807-13.854c-7.168-4.578-13.917-9.08-20.367-13.278 c-3.219-2.108-6.352-4.159-9.397-6.153c-1.522-0.997-3.023-1.979-4.501-2.947c-1.475-0.973-2.873-2.012-4.28-2.991 c-5.597-3.957-10.843-7.667-15.724-11.118c-4.877-3.455-9.389-6.651-13.523-9.58c-4.024-3.079-7.68-5.876-10.954-8.381 c-13.091-10.017-20.073-15.359-20.073-15.359c-0.549-0.42-0.653-1.205-0.233-1.754c0.415-0.542,1.187-0.651,1.735-0.248 l0.04,0.03c0,0,7.06,5.202,20.296,14.955c3.308,2.438,7.002,5.16,11.068,8.156c4.174,2.845,8.731,5.95,13.655,9.306 c4.926,3.351,10.219,6.952,15.867,10.794c1.419,0.95,2.829,1.959,4.317,2.902c1.491,0.938,3.004,1.89,4.539,2.856 c3.07,1.932,6.229,3.919,9.474,5.961c6.502,4.066,13.302,8.427,20.522,12.857c7.319,4.267,14.979,8.732,22.964,13.386 c4.003,2.307,8.039,4.744,12.241,7.077c4.228,2.287,8.538,4.617,12.926,6.99c4.387,2.372,8.854,4.788,13.397,7.245 c2.271,1.228,4.562,2.467,6.872,3.716c2.298,1.27,4.701,2.393,7.075,3.611c9.541,4.791,19.387,9.736,29.524,14.826 c2.515,1.309,5.142,2.44,7.737,3.68c2.606,1.216,5.231,2.441,7.873,3.675c5.284,2.466,10.64,4.966,16.065,7.499 c2.712,1.266,5.442,2.54,8.189,3.823c2.781,1.208,5.58,2.423,8.396,3.646c5.631,2.445,11.332,4.919,17.098,7.422 c2.883,1.252,5.783,2.51,8.699,3.776c1.458,0.633,2.92,1.268,4.386,1.904c1.481,0.601,2.967,1.204,4.457,1.808 c5.962,2.408,11.989,4.843,18.08,7.302c48.746,19.612,102.468,38.577,160.07,56.071 c57.597,17.511,119.061,33.568,183.164,47.831c4.004,0.903,8.016,1.808,12.036,2.714c4.022,0.899,8.074,1.703,12.122,2.562 c8.101,1.691,16.233,3.39,24.394,5.094c4.084,0.835,8.159,1.744,12.271,2.523c4.108,0.793,8.223,1.588,12.345,2.384 c8.243,1.592,16.512,3.189,24.807,4.791c4.142,0.825,8.309,1.563,12.482,2.3c4.171,0.744,8.349,1.488,12.532,2.233 c8.366,1.491,16.754,2.985,25.164,4.484c8.431,1.383,16.882,2.771,25.353,4.16c4.235,0.695,8.474,1.391,12.719,2.087 l6.369,1.045l6.389,0.971c68.145,10.569,137.675,19.319,207.373,26.383l13.065,1.35l13.078,1.213 c8.717,0.809,17.433,1.617,26.144,2.425c8.707,0.838,17.432,1.474,26.137,2.22c8.708,0.715,17.41,1.43,26.104,2.144 c8.7,0.636,17.392,1.271,26.073,1.905c8.681,0.63,17.347,1.298,26.013,1.816c17.328,1.086,34.594,2.282,51.814,3.16 c68.857,3.834,136.693,6.298,202.361,7.489c65.669,1.189,129.165,1.242,189.36,0.479c60.197-0.775,117.092-2.435,169.58-4.51 c52.489-2.068,100.568-4.672,143.147-7.35c42.58-2.675,79.661-5.458,110.161-7.995c30.5-2.531,54.425-4.774,70.703-6.402 c8.135-0.833,14.372-1.471,18.575-1.901c1.216-0.125,2.285-0.235,3.204-0.33c1.129-0.103,2.073-0.189,2.832-0.259 c1.175-0.11,1.772-0.166,1.772-0.166c11.842-1.108,22.34,7.594,23.448,19.436c1.108,11.842-7.594,22.34-19.436,23.448 l-0.04,0.004L2589.765,4218.119z"/></g></g><g id="Torso"><path id="Torso_Shape_1_" fill="#FF570B" d="M2433.225,2765.534v327.464l-27.869,197.407c0,0-69.633,400.291-434.689,500.705 c-366.602,100.839-319.27,211.468-320.044,227.725c-0.774,16.257,45.483,227.093,889.435,177.321 c905.752-53.416,891.817-761.76,880.205-882.527c-11.612-120.767-103.118-372.017-298.203-539.233 C2926.974,2607.182,2433.225,2765.534,2433.225,2765.534z"/><g id="Torso_Tail_1_"><defs><path id="SVGID_4_" d="M2418.785,2776.5v327.464l-27.869,197.407c0,0-69.24,389.621-434.296,490.035 c-366.602,100.839-320.497,205.149-321.271,221.406c-0.774,16.257,46.316,244.082,890.269,194.311 c905.751-53.416,891.817-761.76,880.205-882.527c-11.612-120.767-83.608-371.591-278.693-538.806 C2932.044,2618.574,2418.785,2776.5,2418.785,2776.5z"/></defs><clipPath id="SVGID_5_"><use overflow="visible" xlink:href="#SVGID_4_"/></clipPath><path fill="#FFF" d="M2086.967,3674.198c-142.027,125.522-191.82,77.451-372.047,139.659 c-237.739,82.06-45.214,342.777,114.402,371.59c252.333,45.55,630.192,24.599,748.739,16.464 C2301.465,4143.261,2094.843,3930.206,2086.967,3674.198z" clip-path="url(#SVGID_5_)"/></g><linearGradient id="Torso_Shadow_2_" x1="5380.586" x2="5351.374" y1="4329.845" y2="3863.243" gradientTransform="matrix(-1 0 0 1 7984.124 0)" gradientUnits="userSpaceOnUse"><stop offset=".004" style="stop-color:#1d1d1b"/><stop offset="1" style="stop-color:#231f20;stop-opacity:0"/></linearGradient><path id="Torso_Shadow_1_" fill="url(#Torso_Shadow_2_)" d="M2099.624,3762.304c8.615,85.269,115.021,343.683,443.792,431.847 c278.361-26.172,484.943-123.378,619.5-246.073C3228.251,3888.505,2539.507,4198.929,2099.624,3762.304z"/><path id="Torso_Line_3_1_" fill="#1D1D1B" d="M2622.026,4213.696l61.237-10.858c-2.731-0.597-354.43-93.54-469.497-276.162 c-2.74-4.348-107.977-166.623-112.754-207.013l-26.059,11.292c29.967,96.851,98.419,209.628,100.441,213.026 C2294.292,4143.714,2581.456,4212.842,2622.026,4213.696z"/><path id="Torso_Line_2_1_" fill="none" stroke="#1D1D1B" stroke-linecap="round" stroke-linejoin="round" stroke-miterlimit="10" stroke-width="41.694" d="M3116.678,2776.595c0,0,246.782,203.483,282.176,527.968c41.847,383.646-123.484,726.145-639.938,859.764 c-55.261,14.297-96.276,23.042-159.753,32.352"/><path id="Torso_Line_1_1_" fill="none" stroke="#1D1D1B" stroke-linecap="round" stroke-linejoin="round" stroke-miterlimit="10" stroke-width="41.694" d="M2451.487,2752.392c5.869,143.385-27.167,818.203-339.614,984.259"/></g><g id="Arm_Front"><path id="Arm_Front_Shape" fill="#FF570B" stroke="#1D1D1B" stroke-linecap="round" stroke-linejoin="round" stroke-miterlimit="10" stroke-width="41.694" d="M2452.645,2849.967c0.68,18.465-553.91,153.147-485.925,658.342c68.093,506.004,356.501,433.51,387.072,419.587 c20.947-9.54,216.762-116.122,29.418-407.201c-186.397-289.609,41.813-502.753,99.625-549.991 c7.937-6.485,70.726-55.815,70.726-55.815"/><path id="Arm_Front_Shape_2_" fill="none" stroke="#1D1D1B" stroke-linecap="round" stroke-linejoin="round" stroke-miterlimit="10" stroke-width="41.694" d="M2452.645,2849.967c0.68,18.465-553.91,153.147-485.925,658.342c68.093,506.004,356.501,433.51,387.072,419.587 c20.947-9.54,216.762-116.122,29.418-407.201c-186.397-289.609,41.813-502.753,99.625-549.991 c7.937-6.485,70.726-55.815,70.726-55.815"/><linearGradient id="Arm_Front_Shadow_1_" x1="5712.254" x2="5749.336" y1="4073.065" y2="3672.184" gradientTransform="matrix(-1 0 0 1 7984.124 0)" gradientUnits="userSpaceOnUse"><stop offset=".004" style="stop-color:#1d1d1b"/><stop offset="1" style="stop-color:#231f20;stop-opacity:0"/></linearGradient><path id="Arm_Front_Shadow" fill="url(#Arm_Front_Shadow_1_)" d="M1996.843,3652.736c9.642,31.123,21.309,61.693,35.949,90.826 c28.75,57.209,69.761,108.828,125.285,141.949c56.44,33.668,135.883,48.956,199.592,26.204 c17.802-6.357,172.756-57.131,101.189-255.066c2.214,6.124-35.804,132.99-204.837,143.875 C2101.145,3810.368,1989.784,3629.949,1996.843,3652.736z"/></g><g id="Neck_Shadow"><linearGradient id="Neck_Shadow_1_" x1="2804.125" x2="2804.526" y1="2360.625" y2="3391.76" gradientUnits="userSpaceOnUse"><stop offset=".184" style="stop-color:#1d1d1b"/><stop offset=".903" style="stop-color:#231f20;stop-opacity:0"/></linearGradient><path id="Neck_Shadow_2_" fill="url(#Neck_Shadow_1_)" d="M2441.51,3009.568c7.938-15.624,17.919-33.056,32.712-42.453 c2.589-17.236,5.114-35.264-0.527-51.756s-24.362-51.74-46.083-44.77c16.969-44.184,21.59-85.927,16.361-132.968 c50.604,6.936,319.793,57.398,672.295,43.725c54.879,32.783,104.391,130.937,111.53,143.132 c-171.308-120.772-379.387-45.277-470.113,41.659c-27.622,26.586-226.709,189.359-370.031,352.659 C2357.982,3352.605,2437.516,3017.429,2441.51,3009.568z"/></g><g id="Head"><path id="Head_shape" fill="#FF570B" stroke="#1D1D1B" stroke-linecap="round" stroke-miterlimit="10" stroke-width="41.694" d="M2581.642,2761.14c0,0-790.559-99.486-727.213-842.666c40.987-480.861,119.592-500.961,24.039-824.112 c0,0,1563.928-15.125,1767.908,595.278c178.258,533.431,41.436,1110.155-660.189,1096.239 C2986.187,2785.879,2683.669,2782.564,2581.642,2761.14z"/><linearGradient id="Shadow_1_1_" x1="2681.189" x2="2075.046" y1="1542.051" y2="902.817" gradientUnits="userSpaceOnUse"><stop offset=".004" style="stop-color:#1d1d1b"/><stop offset="1" style="stop-color:#231f20;stop-opacity:0"/></linearGradient><path id="Shadow_1" fill="url(#Shadow_1_1_)" d="M2660.245,1393.296c0,0-158.8-206.087-573.361-295.909 c174.822,18.596,370.031,26.058,370.031,26.058L2660.245,1393.296z"/><g id="Shadow_bottom"><defs><path id="SVGID_35_" d="M2565.873,2758.79c0,0-788.788-99.622-712.215-843.82c49.545-481.519,128.508-501.647,38.707-825.24 c0,0,1564.197-15.146,1757.313,596.093c168.764,534.161,21.676,1111.675-679.701,1097.74 C2969.977,2783.562,2667.518,2780.243,2565.873,2758.79z"/></defs><clipPath id="SVGID_6_"><use overflow="visible" xlink:href="#SVGID_35_"/></clipPath><linearGradient id="SVGID_7_" x1="2685.084" x2="2738.57" y1="3091.343" y2="2513.132" gradientUnits="userSpaceOnUse"><stop offset=".004" style="stop-color:#1d1d1b"/><stop offset="1" style="stop-color:#231f20;stop-opacity:0"/></linearGradient><path fill="url(#SVGID_7_)" d="M1870.093,2454.746c-15.685-5.747,306.302,312.291,314.439,323.125 c79.423,4.144,136.787,57.002,213.68,72.964c34.04,7.066,92.842,1.529,128.555,3.474c0,0,268.896,20.896,434.309,24.321 c587.185,12.161,656.05-351.58,649.726-347.447C3129.587,2845.624,2325.248,2621.521,1870.093,2454.746z" clip-path="url(#SVGID_6_)"/></g></g><g id="Mouth"><path id="Smile_1_" fill="none" stroke="#1D1D1B" stroke-linecap="round" stroke-miterlimit="10" stroke-width="20.847" d="M3227.354,2402.271c-0.027,2.087,150.817,161.618,268.997,0.358"/></g><g id="Right_Eye"><path fill="#FFF" stroke="#1D1D1B" stroke-miterlimit="10" stroke-width="21.514" d="M3563.996,2078.646 c4.253,167.177,16.967,321.306,81.961,323.752c32.567-24.57,111.343-133.379,119.075-319.248 c0-207.245-56.445-338.456-132.993-392.881C3550.851,1749.198,3569.669,1948.928,3563.996,2078.646z"/><g><defs><path id="SVGID_3_" d="M3563.996,2078.646c-6.875,157.191,12.328,339.864,77.321,342.311 c84.667,3.187,115.982-182.447,115.982-318.413c0-207.245-59.063-377.966-122.941-377.093 C3556.65,1726.512,3569.669,1948.928,3563.996,2078.646z"/></defs><clipPath id="SVGID_8_"><use overflow="visible" xlink:href="#SVGID_3_"/></clipPath><path fill="#1D1D1B" d="M3720.958,2020.302c0,145.521-45.976,263.489-102.689,263.489 c-56.714,0-89.067-110.086-89.067-255.607s32.354-271.371,89.067-271.371 C3674.982,1756.813,3720.958,1874.781,3720.958,2020.302z" clip-path="url(#SVGID_8_)"/></g><linearGradient id="Right_Shadow_1_" x1="3654.408" x2="3669.899" y1="2076.553" y2="2383.562" gradientUnits="userSpaceOnUse"><stop offset=".342" style="stop-color:#fff"/><stop offset="1" style="stop-color:#1d1d1b"/></linearGradient><path id="Right_Shadow_2_" fill="url(#Right_Shadow_1_)" d="M3644.934,2226.071 c-21.555,2.813-51.624,2.284-73.207,1.194c4.095,99.633,27.119,169.136,78.799,169.136 c59.457-49.811,83.422-104.495,99.813-208.57C3712.337,2208.285,3688.367,2220.403,3644.934,2226.071z" opacity=".62"/><g><defs><path id="SVGID_9_" d="M3563.996,2078.646c4.253,167.177,16.967,321.306,81.961,323.752 c32.567-24.57,111.343-133.379,119.075-319.248c0-207.245-56.445-338.456-132.993-392.881 C3550.851,1749.198,3569.669,1948.928,3563.996,2078.646z"/></defs><clipPath id="SVGID_10_"><use overflow="visible" xlink:href="#SVGID_9_"/></clipPath><path id="Left_Eye_Reflection_2_" fill="#FFF" d="M3636.218,1826.622 c17.092,30.54,10.8,63.796-14.054,74.278c-24.854,10.483-58.858-5.777-75.95-36.317c-17.092-30.54-10.8-63.796,14.055-74.278 C3585.122,1779.822,3619.126,1796.082,3636.218,1826.622z" clip-path="url(#SVGID_10_)"/></g></g><g id="Left_Eye"><path id="Left_Eye_Shape_1_" fill="#FFF" stroke="#1D1D1B" stroke-miterlimit="10" stroke-width="20.847" d="M3044.406,1833.824c145.961,178.887,150.73,418.63,10.654,535.481c-140.077,116.851-371.956,66.561-517.917-112.326 c-145.961-178.887-150.73-418.63-10.654-535.481C2666.566,1604.647,2898.446,1654.937,3044.406,1833.824z"/><path id="Left_Pupil_1_" fill="#1D1D1B" d="M2984.467,1899.564c92.185,128.942,73.765,291.83-41.141,363.821 c-114.907,71.991-282.788,25.823-374.972-103.118c-92.185-128.942-73.765-291.83,41.142-363.821 C2724.402,1724.455,2892.282,1770.622,2984.467,1899.564z"/><path id="Left_Eye_Reflection_1_" fill="#FFF" d="M2623.245,1890.788c4.797,36.345-18.348,65.809-51.697,65.809 s-64.272-29.464-69.07-65.809c-4.797-36.345,18.348-65.809,51.697-65.809S2618.448,1854.443,2623.245,1890.788z"/><linearGradient id="Left_Shadow_2_" x1="5152.907" x2="5172.827" y1="2052.385" y2="2447.169" gradientTransform="matrix(-1 0 0 1 7984.124 0)" gradientUnits="userSpaceOnUse"><stop offset=".342" style="stop-color:#fff"/><stop offset="1" style="stop-color:#1d1d1b"/></linearGradient><path id="Left_Shadow_1_" fill="url(#Left_Shadow_2_)" d="M3034.31,2226.008 c-129.295,23.75-268.465,22.433-397.999-0.133c-47.698-8.31-95.45-19.224-142.368-32.814 c9.626,16.878,20.266,33.425,31.964,49.513c140.82,193.691,378.553,248.53,530.991,122.485 c55.045-45.514,80.35-108.06,97.747-178.94C3113.121,2204.274,3080.3,2217.561,3034.31,2226.008z" opacity=".62"/></g><g id="Antenna_Front"><g id="Antenna_Front_1_"><path fill="#FF570B" d="M2827.534,1476.803c0,0-269.403-764.083-1093.869-1300.567c0,0,743.302,966.899,936.135,1211.849"/><path fill="#1D1D1B" d="M2817.662,1480.316c-3.004-8.149-6.317-16.497-9.665-24.719c-3.371-8.243-6.817-16.468-10.348-24.663 c-7.044-16.397-14.395-32.684-21.933-48.886c-15.121-32.388-31.058-64.416-47.673-96.091 c-16.646-31.661-33.926-62.993-51.826-93.968c-17.925-30.961-36.448-61.577-55.535-91.834 c-19.087-30.258-38.738-60.157-58.917-89.694c-20.198-29.524-40.957-58.66-62.208-87.427l-7.966-10.79l-8.067-10.714 l-8.082-10.703c-2.684-3.575-5.389-7.134-8.136-10.661l-16.397-21.225l-16.631-21.041 c-22.308-27.947-45.039-55.552-68.288-82.71c-93.014-108.625-193.916-210.39-301.492-304.394 c-13.537-11.648-26.955-23.432-40.708-34.824c-6.85-5.726-13.653-11.508-20.541-17.187l-20.76-16.92l-10.386-8.451 l-10.501-8.308l-21.001-16.615l-21.226-16.323c-7.091-5.42-14.121-10.919-21.318-16.199 c-14.332-10.641-28.576-21.397-43.123-31.741l-21.725-15.641l-21.95-15.324l-10.974-7.662 c-3.642-2.576-7.379-5.017-11.064-7.531l-22.179-14.984c-7.356-5.049-14.886-9.838-22.34-14.74l-22.406-14.636l-0.001,0 l27.897-30.179l231.614,304.807l231.842,304.634l232.14,304.398l116.339,151.975c19.359,25.36,38.855,50.588,58.33,75.838 l58.424,75.754l0.055,0.071c3.898,5.055,2.961,12.313-2.094,16.211c-5.016,3.868-12.206,2.969-16.125-1.983l-59.392-75.107 c-19.799-25.036-39.623-50.056-59.287-75.178l-118.206-150.593l-235.843-301.594l-235.539-301.822l-235.313-301.999 c-7.069-9.072-5.445-22.156,3.627-29.225c7.197-5.608,16.919-5.745,24.16-1.032l0.11,0.079l0.001,0l22.547,15.116 c7.499,5.062,15.074,10.011,22.473,15.22l22.306,15.463c3.705,2.595,7.462,5.115,11.125,7.771l11.033,7.901l22.063,15.803 l21.832,16.119c14.616,10.662,28.924,21.736,43.316,32.693c7.227,5.439,14.285,11.096,21.404,16.674l21.306,16.797 l21.073,17.087l10.535,8.543l10.418,8.687l20.82,17.389c6.907,5.835,13.727,11.773,20.593,17.655 c13.785,11.703,27.231,23.797,40.792,35.754c107.766,96.478,208.568,200.633,301.233,311.521 c23.163,27.725,45.791,55.888,67.982,84.385l16.541,21.452l16.302,21.633c2.73,3.595,5.418,7.222,8.086,10.864l8.031,10.905 l8.015,10.916l7.912,10.99c21.106,29.302,41.707,58.964,61.734,89.008c20.008,30.056,39.477,60.468,58.37,91.232 s37.211,61.88,54.923,93.339c17.687,31.473,34.745,63.3,51.162,95.46c16.388,32.176,32.091,64.707,46.982,97.63 c7.424,16.473,14.661,33.035,21.603,49.744c3.479,8.35,6.877,16.741,10.207,25.171c3.325,8.461,6.547,16.855,9.654,25.604 c1.936,5.453-0.915,11.443-6.368,13.38c-5.411,1.921-11.352-0.872-13.334-6.243L2817.662,1480.316z"/></g><linearGradient id="Shadow_2_" x1="5837.598" x2="5608.34" y1="952.379" y2="710.605" gradientTransform="matrix(-1 0 0 1 7984.124 0)" gradientUnits="userSpaceOnUse"><stop offset=".004" style="stop-color:#1d1d1b"/><stop offset="1" style="stop-color:#231f20;stop-opacity:0"/></linearGradient><path id="Shadow" fill="url(#Shadow_2_)" d="M2673.274,1388.085c-0.631-0.975,99.087,91.067-16.793-83.387 c-187.201-281.824-655.145-895.094-826.767-1031.273l-23.32-16.279C1806.394,257.145,2542.981,1264.741,2673.274,1388.085z"/><rect width="2867.427" height="593.881" x="0" y="-565.524" fill="none"/><text transform="matrix(1 0 0 1 -2.237956e-004 -413.5254)"><tspan x="0" y="0" fill="#FFF" font-family="'Verdana'" font-size="200">Final Design</tspan><tspan x="0" y="240" fill="#FFF" font-family="'Verdana'" font-size="200">Beam Mascot</tspan></text></g></g></switch></svg>