<svg xmlns="http://www.w3.org/2000/svg" xmlns:xlink="http://www.w3.org/1999/xlink" id="Mascot" x="0" y="0" enable-background="new 0 0 2834.646 2834.646" version="1.1" viewBox="0 0 2834.646 2834.646" xml:space="preserve"><switch><g><g><defs><path id="SVGID_2_" d="M1649.906,1901.678c0,0-276.978,144.758-455.93,5.699c0,0,17.688,343.083,64.101,610.408 c4.26,24.537,51.672,210.868,162.995,229.105c77.128-7.599,143.319-149.856,153.876-217.707 C1616.874,2259.739,1652.024,1905.915,1649.906,1901.678z"/></defs><clipPath id="SVGID_3_"><use overflow="visible" xlink:href="#SVGID_2_"/></clipPath><g clip-path="url(#SVGID_3_)"><text transform="matrix(0 -1 1 0 1263.0594 3152.0305)"><tspan x="0" y="0" fill="#FFD500" font-family="'OCRAStd'" font-size="27.41">pcollection | WindowInto(</tspan><tspan x="0" y="32.893" fill="#FFD500" font-family="'OCRAStd'" font-size="27.41"> FixedWindows(1 * 60),</tspan><tspan x="0" y="65.785" fill="#FFD500" font-family="'OCRAStd'" font-size="27.41"> trigger=Repeatedly(</tspan><tspan x="0" y="98.677" fill="#FFD500" font-family="'OCRAStd'" font-size="27.41"> AfterAny(AfterCount(100), AfterProcessingTime(1 * 60))),</tspan><tspan x="0" y="131.569" fill="#FFD500" font-family="'OCRAStd'" font-size="27.41"> accumulation_mode=AccumulationMode.DISCARDING)</tspan></text></g><g clip-path="url(#SVGID_3_)"><text transform="matrix(0 -1 1 0 1471.6044 2638.4358)"><tspan x="0" y="0" fill="#FD0" font-family="'OCRAStd'" font-size="27.41">pcollection | WindowInto(</tspan><tspan x="0" y="32.893" fill="#FD0" font-family="'OCRAStd'" font-size="27.41"> FixedWindows(1 * 60),</tspan><tspan x="0" y="65.785" fill="#FD0" font-family="'OCRAStd'" font-size="27.41"> trigger=Repeatedly(</tspan><tspan x="0" y="98.677" fill="#FD0" font-family="'OCRAStd'" font-size="27.41"> AfterAny(AfterCount(100), AfterProcessingTime(1 * 60))),</tspan><tspan x="0" y="131.569" fill="#FD0" font-family="'OCRAStd'" font-size="27.41"> accumulation_mode=AccumulationMode.DISCARDING)</tspan></text></g><g clip-path="url(#SVGID_3_)"><text transform="matrix(0 -1 1 0 1117.6683 2871.1174)"><tspan x="0" y="0" fill="#FFE100" font-family="'OCRAStd'" font-size="33.891">pcollection | WindowInto(</tspan><tspan x="0" y="40.669" fill="#FFE100" font-family="'OCRAStd'" font-size="33.891"> FixedWindows(1 * 60),</tspan><tspan x="0" y="81.339" fill="#FFE100" font-family="'OCRAStd'" font-size="33.891"> trigger=Repeatedly(</tspan><tspan x="0" y="122.008" fill="#FFE100" font-family="'OCRAStd'" font-size="33.891"> AfterAny(AfterCount(100), AfterProcessingTime(1 * 60))),</tspan><tspan x="0" y="162.678" fill="#FFE100" font-family="'OCRAStd'" font-size="33.891"> accumulation_mode=AccumulationMode.DISCARDING)</tspan></text></g><g clip-path="url(#SVGID_3_)"><text transform="matrix(0 -1 1 0 1708.4301 2445.0032)"><tspan x="0" y="0" fill="#FFF200" font-family="'OCRAStd'" font-size="27.41">pcollection | WindowInto(</tspan><tspan x="0" y="32.893" fill="#FFF200" font-family="'OCRAStd'" font-size="27.41"> FixedWindows(1 * 60),</tspan><tspan x="0" y="65.785" fill="#FFF200" font-family="'OCRAStd'" font-size="27.41"> trigger=Repeatedly(</tspan><tspan x="0" y="98.677" fill="#FFF200" font-family="'OCRAStd'" font-size="27.41"> AfterAny(AfterCount(100), AfterProcessingTime(1 * 60))),</tspan><tspan x="0" y="131.569" fill="#FFF200" font-family="'OCRAStd'" font-size="27.41"> accumulation_mode=AccumulationMode.DISCARDING)</tspan></text></g></g><linearGradient id="SVGID_5_" x1="503.748" x2="2475.876" y1="1450.22" y2="1450.22" gradientUnits="userSpaceOnUse"><stop offset="0" style="stop-color:#fff541"/><stop offset=".101" style="stop-color:#fff87a"/><stop offset=".199" style="stop-color:#fffbaa"/><stop offset=".292" style="stop-color:#fffccf"/><stop offset=".378" style="stop-color:#fffee9"/><stop offset=".454" style="stop-color:#fffff9"/><stop offset=".513" style="stop-color:#fff"/><stop offset=".563" style="stop-color:#fffeed"/><stop offset=".664" style="stop-color:#fffcbe"/><stop offset=".805" style="stop-color:#fff872"/><stop offset=".981" style="stop-color:#fff30b"/><stop offset="1" style="stop-color:#fff200"/></linearGradient><path fill="url(#SVGID_5_)" stroke="#FFF200" stroke-linecap="round" stroke-linejoin="round" stroke-miterlimit="10" stroke-width="13.731" d="M1417.257,1686.566c0,0-67.25,94.606-249.622,82.068l-3.609-0.162c-325.04-55.472-639.012-211.996-582.941-221.664 c66.544-11.473,520.88-13.768,520.88-13.768c-551.858-211.106-647.085-400.412-647.085-400.412 c146.399-16.353,433.917,73.002,603.549,132.103l7.761,2.379c305.694,94.54,351.634,278.79,351.066,279.257h0.131 c-0.567-0.468,45.372-184.717,351.066-279.257l7.761-2.379c169.632-59.102,457.15-148.456,603.549-132.103 c0,0-95.227,189.307-647.085,400.412c0,0,454.336,2.295,520.88,13.768c56.072,9.667-257.9,166.192-582.941,221.664l-3.609,0.162 c-182.372,12.538-249.622-82.068-249.622-82.068H1417.257z"/><radialGradient id="SVGID_6_" cx="4701.567" cy="1789.186" r="952.439" gradientTransform="matrix(-1 0 0 1 6146.5391 0)" gradientUnits="userSpaceOnUse"><stop offset="0" style="stop-color:#ffed00"/><stop offset="1" style="stop-color:#ffed00;stop-opacity:0"/></radialGradient><path fill="url(#SVGID_6_)" d="M1650.069,1921.246c0,0-276.978,144.758-455.93,5.699c0,0,17.688,343.083,64.101,610.408 c4.26,24.538,51.672,210.868,162.995,229.105c77.128-7.599,143.319-149.856,153.877-217.707 C1617.037,2279.307,1652.187,1925.483,1650.069,1921.246z"/><path fill="#FF570B" d="M1607.325,1319.418c0,0,77.326,290.535,64.654,531.385c-12.792,243.127-243.606,233.439-243.606,233.439 s-162.733,18.475-236.514-124.811c-26.083-50.654-35.224-149.37-30.205-237.654c15.388-270.709,75.798-410.337,75.798-410.337"/><g><defs><path id="SVGID_7_" d="M1607.325,1319.418c0,0,87.704,291.306,64.654,531.385c-18.119,188.717-248.364,201.255-248.364,201.255 s-153.877-7.979-231.757-92.627c-38.576-41.929-35.224-149.37-30.205-237.654c15.388-270.709,75.798-410.337,75.798-410.337"/></defs><clipPath id="SVGID_8_"><use overflow="visible" xlink:href="#SVGID_7_"/></clipPath><g clip-path="url(#SVGID_8_)"><text transform="matrix(0 -1 -1 0 1647.8514 2120.1223)"><tspan x="0" y="0" fill="#FFF200" font-family="'OCRAStd'" font-size="36.886">pcollection | WindowInto(</tspan><tspan x="0" y="44.263" fill="#FFF200" font-family="'OCRAStd'" font-size="36.886"> FixedWindows(1 * 60),</tspan><tspan x="0" y="88.526" fill="#FFF200" font-family="'OCRAStd'" font-size="36.886"> trigger=Repeatedly(</tspan><tspan x="0" y="132.79" fill="#FFF200" font-family="'OCRAStd'" font-size="36.886"> AfterAny(AfterCount(100), AfterProcessingTime(1 * 60))),</tspan><tspan x="0" y="177.053" fill="#FFF200" font-family="'OCRAStd'" font-size="36.886"> accumulation_mode=AccumulationMode.DISCARDING)</tspan></text></g><g clip-path="url(#SVGID_8_)"><text transform="matrix(0 -1 -1 0 1401.6278 2178.9397)"><tspan x="0" y="0" fill="#FFF200" font-family="'OCRAStd'" font-size="36.498">pcollection | WindowInto(</tspan><tspan x="0" y="43.798" fill="#FFF200" font-family="'OCRAStd'" font-size="36.498"> FixedWindows(1 * 60),</tspan><tspan x="0" y="87.595" fill="#FFF200" font-family="'OCRAStd'" font-size="36.498"> trigger=Repeatedly(</tspan><tspan x="0" y="131.393" fill="#FFF200" font-family="'OCRAStd'" font-size="36.498"> AfterAny(AfterCount(100), AfterProcessingTime(1 * 60))),</tspan><tspan x="0" y="175.191" fill="#FFF200" font-family="'OCRAStd'" font-size="36.498"> accumulation_mode=AccumulationMode.DISCARDING)</tspan></text></g></g><linearGradient id="SVGID_9_" x1="1423.134" x2="1423.134" y1="1146.045" y2="1604.491" gradientUnits="userSpaceOnUse"><stop offset=".004" style="stop-color:#1d1d1b"/><stop offset="1" style="stop-color:#231f20;stop-opacity:0"/></linearGradient><path fill="url(#SVGID_9_)" d="M1195.169,1530.507c0,0,100.305-123.861,232.771-124.646c0,0,148.691,12.183,223.159,117.047 l-16.195-78.472c0,0-20.469-33.8-7.361-60.586l-8.359-9.878l-11.398-35.715c0,0-199.849,50.912-372.343-9.878l-15.958,52.432 c0,0,17.477,28.875,7.599,50.912l-16.794,11.795L1195.169,1530.507z"/><radialGradient id="SVGID_10_" cx="1436.064" cy="1907.908" r="827.765" gradientUnits="userSpaceOnUse"><stop offset="0" style="stop-color:#231f20;stop-opacity:0"/><stop offset=".996" style="stop-color:#1d1d1b"/></radialGradient><path fill="url(#SVGID_10_)" d="M1177.312,1856.877c0,0,120.841,139.23,255.354,139.111 c68.21-0.06,157.717-33.314,231.352-133.412l-6.839,99.704c0,0-132.22,108.284-233.664,95.745 c-101.444-12.538-231.655-98.595-231.655-98.595l-14.547-67.82V1856.877z"/><g><g><linearGradient id="SVGID_11_" x1="1268.984" x2="1729.097" y1="2018.77" y2="2018.77" gradientTransform="matrix(1 0 0 1 -60.8933 65.5027)" gradientUnits="userSpaceOnUse"><stop offset="0" style="stop-color:#fff541"/><stop offset=".101" style="stop-color:#fff87a"/><stop offset=".199" style="stop-color:#fffbaa"/><stop offset=".292" style="stop-color:#fffccf"/><stop offset=".378" style="stop-color:#fffee9"/><stop offset=".454" style="stop-color:#fffff9"/><stop offset=".513" style="stop-color:#fff"/><stop offset=".563" style="stop-color:#fffeed"/><stop offset=".664" style="stop-color:#fffcbe"/><stop offset=".805" style="stop-color:#fff872"/><stop offset=".981" style="stop-color:#fff30b"/><stop offset="1" style="stop-color:#fff200"/></linearGradient><path fill="url(#SVGID_11_)" d="M1429.117,2058.026c74.539,0,172.537-39.293,216.663-97.424 c-56.991,226.825-213.377,247.342-223.406,247.342c-11.628,0-156.156-16.337-225.686-246.582 C1240.227,1998.198,1348.343,2058.026,1429.117,2058.026z"/></g><g><path fill="#FFF" d="M1429.117,2058.026c74.539,0,172.537-39.293,216.663-97.424 c-56.991,226.825-213.377,247.342-223.406,247.342c-11.628,0-156.156-16.337-225.686-246.582 C1240.227,1998.198,1348.343,2058.026,1429.117,2058.026z"/></g><g><path fill="none" stroke="#FFF200" stroke-linecap="round" stroke-linejoin="round" stroke-miterlimit="10" stroke-width="13.731" d="M1429.117,2058.026c74.539,0,172.537-39.293,216.663-97.424c-56.991,226.825-213.377,247.342-223.406,247.342 c-11.628,0-156.156-16.337-225.686-246.582C1240.227,1998.198,1348.343,2058.026,1429.117,2058.026z"/></g></g><g><defs><path id="SVGID_12_" d="M1429.117,2058.026c74.539,0,172.537-39.293,216.663-97.424 c-56.991,226.825-213.377,247.342-223.406,247.342c-11.628,0-156.156-16.337-225.686-246.582 C1240.227,1998.198,1348.343,2058.026,1429.117,2058.026z"/></defs><clipPath id="SVGID_13_"><use overflow="visible" xlink:href="#SVGID_12_"/></clipPath></g><path fill="none" stroke="#FFF200" stroke-linecap="round" stroke-linejoin="round" stroke-miterlimit="10" stroke-width="20.597" d="M1603.146,1323.978c0,0,60.791,183.892,73.709,395.901c2.694,44.222-12.158,196.049-24.316,246.201"/><path fill="none" stroke="#FFF200" stroke-linecap="round" stroke-linejoin="round" stroke-miterlimit="10" stroke-width="20.597" d="M1240.681,1322.458c0,0-60.468,185.412-73.386,397.421c-2.695,44.222,12.158,196.049,24.316,246.201"/><path fill="#FF570B" d="M1616.769,1377.937c0,0,309.141,102.09,275.892,349.193c-33.249,247.103-176.488,208.364-188.916,204.785 c-13.615-3.921-105.793-56.675-14.358-198.74c103.463-160.753-54.482-288.739-54.482-288.739l-41.262-30.792"/><g><defs><path id="SVGID_4_" d="M1616.769,1377.937c0,0,309.141,102.09,275.892,349.193c-33.249,247.103-176.488,208.364-188.916,204.785 c-13.615-3.921-105.793-56.675-14.358-198.74c103.463-160.753-54.482-288.739-54.482-288.739l-41.262-30.792"/></defs><clipPath id="SVGID_14_"><use overflow="visible" xlink:href="#SVGID_4_"/></clipPath><linearGradient id="SVGID_15_" x1="1423.134" x2="1423.134" y1="1146.045" y2="1604.491" gradientUnits="userSpaceOnUse"><stop offset=".004" style="stop-color:#1d1d1b"/><stop offset="1" style="stop-color:#231f20;stop-opacity:0"/></linearGradient><path fill="url(#SVGID_15_)" d="M1195.169,1530.507c0,0,100.305-123.861,232.771-124.646 c0,0,148.691,12.183,223.159,117.047l-16.195-78.472c0,0-20.469-33.8-7.361-60.586l-8.359-9.878l-11.398-35.715 c0,0-199.849,50.912-372.343-9.878l-15.958,52.432c0,0,17.477,28.875,7.599,50.912l-16.794,11.795L1195.169,1530.507z" clip-path="url(#SVGID_14_)"/></g><path fill="#FF570B" d="M1226.906,1377.937c0,0-309.141,102.09-275.892,349.193c33.249,247.103,176.488,208.364,188.916,204.785 c13.615-3.921,105.793-56.675,14.358-198.74c-103.463-160.753,54.482-288.739,54.482-288.739l41.262-30.792"/><g><defs><path id="SVGID_1_" d="M1226.895,1377.937c0,0-309.141,102.09-275.892,349.193c33.249,247.103,176.488,208.364,188.916,204.785 c13.615-3.921,105.793-56.675,14.358-198.74c-103.463-160.753,54.482-288.739,54.482-288.739l41.262-30.792"/></defs><clipPath id="SVGID_16_"><use overflow="visible" xlink:href="#SVGID_1_"/></clipPath><linearGradient id="SVGID_17_" x1="1793.618" x2="1793.618" y1="1146.045" y2="1604.491" gradientTransform="matrix(-1 0 0 1 3214.1465 0)" gradientUnits="userSpaceOnUse"><stop offset=".004" style="stop-color:#1d1d1b"/><stop offset="1" style="stop-color:#231f20;stop-opacity:0"/></linearGradient><path fill="url(#SVGID_17_)" d="M1648.494,1530.507c0,0-100.305-123.861-232.771-124.646 c0,0-148.691,12.183-223.159,117.047l16.195-78.472c0,0,20.469-33.8,7.361-60.586l8.359-9.878l11.398-35.715 c0,0,199.849,50.912,372.343-9.878l15.958,52.432c0,0-17.477,28.875-7.599,50.912l16.794,11.795L1648.494,1530.507z" clip-path="url(#SVGID_16_)"/></g><path fill="#FF570B" stroke="#FFF200" stroke-linecap="round" stroke-linejoin="round" stroke-miterlimit="10" stroke-width="20.597" d="M1798.783,695.978c-93.821-87.445-358.407-182.306-375.474-240.489h-1.418c-17.067,58.183-281.652,153.044-375.474,240.489 c-159.809,148.948-145.069,577.95,245.144,646.218c0,0,64.704,9.422,133.854,10.265c66.109,3.717,128.224-10.265,128.224-10.265 C1943.852,1273.928,1958.592,844.926,1798.783,695.978z"/><g><defs><path id="SVGID_18_" d="M1798.783,695.978c-93.821-87.445-358.407-182.306-375.474-240.489h-1.418 c-17.067,58.183-281.652,153.044-375.474,240.489c-159.809,148.948-145.069,577.95,245.144,646.218 c0,0,64.704,9.422,133.854,10.265c66.109,3.717,128.224-10.265,128.224-10.265 C1943.852,1273.928,1958.592,844.926,1798.783,695.978z"/></defs><clipPath id="SVGID_19_"><use overflow="visible" xlink:href="#SVGID_18_"/></clipPath><g clip-path="url(#SVGID_19_)"><text transform="matrix(0 1 -1 0 1233.0448 -33.4035)"><tspan x="0" y="0" fill="#FFF200" font-family="'OCRAStd'" font-size="33.077">@on_timer(WATERMARK_TIMER)</tspan><tspan x="0" y="39.692" fill="#FFF200" font-family="'OCRAStd'" font-size="33.077"> def on_expiry_1(self,</tspan><tspan x="0" y="79.385" fill="#FFF200" font-family="'OCRAStd'" font-size="33.077"> timestamp=beam.DoFn.TimestampParam,</tspan><tspan x="0" y="119.077" fill="#FFF200" font-family="'OCRAStd'" font-size="33.077"> window=beam.DoFn.WindowParam,</tspan><tspan x="0" y="158.77" fill="#FFF200" font-family="'OCRAStd'" font-size="33.077"> key=beam.DoFn.KeyParam,</tspan><tspan x="0" y="198.462" fill="#FFF200" font-family="'OCRAStd'" font-size="33.077"> buffer_1=beam.DoFn.StateParam(BUFFER_STATE_1),</tspan><tspan x="0" y="238.155" fill="#FFF200" font-family="'OCRAStd'" font-size="33.077"> buffer_2=beam.DoFn.StateParam(BUFFER_STATE_2)):</tspan></text></g><g clip-path="url(#SVGID_19_)"><text transform="matrix(0 1 -1 0 1470.6869 93.1106)"><tspan x="0" y="0" fill="#FFF200" font-family="'OCRAStd'" font-size="33.077">@on_timer(WATERMARK_TIMER)</tspan><tspan x="0" y="39.692" fill="#FFF200" font-family="'OCRAStd'" font-size="33.077"> def on_expiry_1(self,</tspan><tspan x="0" y="79.385" fill="#FFF200" font-family="'OCRAStd'" font-size="33.077"> timestamp=beam.DoFn.TimestampParam,</tspan><tspan x="0" y="119.077" fill="#FFF200" font-family="'OCRAStd'" font-size="33.077"> window=beam.DoFn.WindowParam,</tspan><tspan x="0" y="158.77" fill="#FFF200" font-family="'OCRAStd'" font-size="33.077"> key=beam.DoFn.KeyParam,</tspan><tspan x="0" y="198.462" fill="#FFF200" font-family="'OCRAStd'" font-size="33.077"> buffer_1=beam.DoFn.StateParam(BUFFER_STATE_1),</tspan><tspan x="0" y="238.155" fill="#FFF200" font-family="'OCRAStd'" font-size="33.077"> buffer_2=beam.DoFn.StateParam(BUFFER_STATE_2)):</tspan></text></g><g clip-path="url(#SVGID_19_)"><text transform="matrix(0 1 -1 0 1788.2611 205.9334)"><tspan x="0" y="0" fill="#FFF200" font-family="'OCRAStd'" font-size="40.604">@on_timer(WATERMARK_TIMER)</tspan><tspan x="0" y="48.725" fill="#FFF200" font-family="'OCRAStd'" font-size="40.604"> def on_expiry_1(self,</tspan><tspan x="0" y="97.449" fill="#FFF200" font-family="'OCRAStd'" font-size="40.604"> timestamp=beam.DoFn.TimestampParam,</tspan><tspan x="0" y="146.173" fill="#FFF200" font-family="'OCRAStd'" font-size="40.604"> window=beam.DoFn.WindowParam,</tspan><tspan x="0" y="194.898" fill="#FFF200" font-family="'OCRAStd'" font-size="40.604"> key=beam.DoFn.KeyParam,</tspan><tspan x="0" y="243.622" fill="#FFF200" font-family="'OCRAStd'" font-size="40.604"> buffer_1=beam.DoFn.StateParam(BUFFER_STATE_1),</tspan><tspan x="0" y="292.347" fill="#FFF200" font-family="'OCRAStd'" font-size="40.604"> buffer_2=beam.DoFn.StateParam(BUFFER_STATE_2)):</tspan></text></g><g clip-path="url(#SVGID_19_)"><text transform="matrix(0 1 -1 0 2096.4365 233.303)"><tspan x="0" y="0" fill="#FFF200" font-family="'OCRAStd'" font-size="33.077">@on_timer(WATERMARK_TIMER)</tspan><tspan x="0" y="39.692" fill="#FFF200" font-family="'OCRAStd'" font-size="33.077"> def on_expiry_1(self,</tspan><tspan x="0" y="79.385" fill="#FFF200" font-family="'OCRAStd'" font-size="33.077"> timestamp=beam.DoFn.TimestampParam,</tspan><tspan x="0" y="119.077" fill="#FFF200" font-family="'OCRAStd'" font-size="33.077"> window=beam.DoFn.WindowParam,</tspan><tspan x="0" y="158.77" fill="#FFF200" font-family="'OCRAStd'" font-size="33.077"> key=beam.DoFn.KeyParam,</tspan><tspan x="0" y="198.462" fill="#FFF200" font-family="'OCRAStd'" font-size="33.077"> buffer_1=beam.DoFn.StateParam(BUFFER_STATE_1),</tspan><tspan x="0" y="238.155" fill="#FFF200" font-family="'OCRAStd'" font-size="33.077"> buffer_2=beam.DoFn.StateParam(BUFFER_STATE_2)):</tspan></text></g></g><g><defs><path id="SVGID_35_" d="M959.2,1063.02c-30.422-132.847,12.242-234.709,82.385-312.717 c133.909-148.926,367.968-210.917,384.835-235.602c18.75,35.905,565.867,164.135,465.046,548.375 c-26.699,135.044-182.895,299.011-457.447,299.011S988.378,1191.814,959.2,1063.02z"/></defs><clipPath id="SVGID_20_"><use overflow="visible" xlink:href="#SVGID_35_"/></clipPath><linearGradient id="SVGID_21_" x1="1425.794" x2="1425.794" y1="1418.203" y2="1244.929" gradientUnits="userSpaceOnUse"><stop offset=".004" style="stop-color:#1d1d1b"/><stop offset="1" style="stop-color:#231f20;stop-opacity:0"/></linearGradient><path fill="url(#SVGID_21_)" d="M1054.591,1222.153c0,0,159.317,86.695,371.83,90.402 c113.713,1.984,242.643-30.345,370.577-88.882C1757.483,1412.124,1291.674,1605.895,1054.591,1222.153z" clip-path="url(#SVGID_20_)"/></g><path fill="#FFF" d="M1444.146,1982.29"/><path fill="none" stroke="#FFF200" stroke-linecap="round" stroke-linejoin="round" stroke-miterlimit="10" stroke-width="21.657" d="M1653.488,1956.011c0,0-104.294,98.975-223.596,98.975c-119.302,0-240.232-99.514-240.232-99.514"/><g><path fill="#FFF200" d="M1199.187,1953.464c0,0,0.182,2.498,0.524,7.181c0.171,2.342,0.381,5.23,0.629,8.625 c0.124,1.698,0.257,3.522,0.399,5.468c0.162,1.925,0.333,3.971,0.515,6.133c0.724,8.652,1.604,19.157,2.613,31.208 c0.511,6.041,1.055,12.47,1.628,19.247c0.602,6.822,1.236,13.995,1.896,21.48c1.322,14.97,2.754,31.189,4.268,48.343 c1.586,17.148,3.259,35.232,4.99,53.939c0.868,9.354,1.75,18.864,2.642,28.491c0.447,4.813,0.897,9.656,1.35,14.523 c0.477,4.864,0.956,9.753,1.437,14.661c1.925,19.634,3.88,39.579,5.835,59.524c0.982,9.973,1.963,19.946,2.941,29.88 c1.043,9.926,2.082,19.813,3.112,29.622c2.061,19.62,4.09,38.929,6.053,57.615c0.491,4.672,0.978,9.305,1.46,13.894 c0.522,4.584,1.038,9.124,1.55,13.615c1.036,8.982,2.049,17.769,3.035,26.323c1.973,17.11,3.838,33.287,5.56,48.22 c0.431,3.734,0.852,7.389,1.264,10.963c0.401,3.575,0.911,7.049,1.344,10.446c0.897,6.79,1.747,13.231,2.546,19.283 c1.599,12.108,2.993,22.664,4.141,31.356c2.296,17.39,3.608,27.327,3.608,27.327l0.002,0.015c0.043,0.327-0.187,0.627-0.514,0.67 c-0.321,0.042-0.616-0.179-0.668-0.496c0,0-1.612-9.894-4.434-27.208c-1.411-8.659-3.125-19.174-5.09-31.235 c-0.983-6.032-2.029-12.45-3.131-19.217c-0.536-3.385-1.152-6.85-1.661-10.411c-0.52-3.56-1.052-7.203-1.596-10.923 c-2.174-14.882-4.529-31.004-7.02-48.057c-1.246-8.527-2.525-17.287-3.833-26.241c-0.647-4.478-1.302-9.004-1.962-13.574 c-0.621-4.574-1.248-9.193-1.88-13.85c-2.529-18.63-5.142-37.88-7.798-57.441c-1.328-9.782-2.666-19.641-4.01-29.539 c-1.278-9.905-2.562-19.849-3.845-29.793c-2.559-19.891-5.119-39.781-7.638-59.361c-0.63-4.895-1.257-9.771-1.881-14.623 c-0.6-4.854-1.196-9.684-1.789-14.485c-1.184-9.602-2.354-19.087-3.505-28.417c-2.297-18.661-4.518-36.701-6.624-53.807 c-2.034-17.116-3.958-33.298-5.733-48.236c-0.888-7.469-1.739-14.627-2.548-21.435c-0.789-6.858-1.537-13.363-2.241-19.477 c-1.394-12.262-2.61-22.951-3.611-31.754c-0.25-2.202-0.486-4.286-0.709-6.247c-0.201-1.944-0.39-3.766-0.565-5.461 c-0.35-3.391-0.649-6.275-0.89-8.613c-0.484-4.677-0.741-7.171-0.741-7.171c-0.585-5.657,3.527-10.717,9.184-11.302 c5.657-0.585,10.717,3.527,11.302,9.184c0.009,0.088,0.017,0.176,0.024,0.264L1199.187,1953.464z"/></g><g><path fill="#FFF200" d="M1645.635,1947.439c0,0,0.003-0.01,0.008-0.029c0.017-0.062,0.039-0.139,0.065-0.232 c0.213-0.73,0.535-1.527,0.988-2.308c0.113-0.195,0.233-0.389,0.361-0.58c-0.349,1.365,0.825-4.325,9.241-4.538 c8.294,1.527,8.409,6.498,8.369,5.363c0.159,0.294,0.308,0.605,0.445,0.931c0.273,0.652,0.491,1.364,0.629,2.094 c0.064,0.303,0.134,0.912,0.12,0.804l0.013,0.131c0.012,0.178,0.025,0.365,0.039,0.563c0.003,0.114,0.006,0.234,0.01,0.359 c0,0.071,0,0.146,0,0.223c-0.005,0.165-0.01,0.358-0.017,0.577c-0.03,0.597-0.073,1.096-0.135,1.788 c-0.131,1.278-0.324,3.173-0.577,5.646c-0.526,4.852-1.336,11.901-2.41,20.861c-2.147,17.917-5.351,43.46-9.41,74.076 c-8.096,61.233-19.702,142.743-32.521,224.055c-6.395,40.658-13.072,81.268-19.595,119.293 c-6.518,38.025-12.882,73.464-18.522,103.804c-5.635,30.341-10.539,55.583-14.029,73.24c-3.531,17.649-5.548,27.734-5.548,27.734 c-0.065,0.323-0.38,0.533-0.703,0.469c-0.318-0.063-0.525-0.372-0.471-0.688c0,0,1.719-10.137,4.727-27.878 c2.967-17.747,7.123-43.112,11.858-73.587c4.74-30.475,10.053-66.06,15.442-104.226c5.394-38.166,10.865-78.914,16.053-119.695 c10.404-81.558,19.589-163.258,25.863-224.571c3.148-30.655,5.591-56.214,7.199-74.088c0.805-8.935,1.402-15.954,1.775-20.7 c0.169-2.328,0.299-4.114,0.386-5.317c0.034-0.549,0.053-0.992,0.049-1.027c0-0.011-0.001-0.008-0.002,0.03 c-0.001,0.047-0.002,0.091-0.003,0.131c0.003,0.152,0.006,0.292,0.008,0.418c0.012,0.172,0.024,0.336,0.035,0.492l0.012,0.115 c-0.014-0.113,0.054,0.491,0.117,0.789c0.135,0.719,0.351,1.422,0.622,2.064c0.135,0.321,0.284,0.628,0.442,0.917 c-0.039-1.143,0.068,3.833,8.358,5.36c8.413-0.212,9.58-5.904,9.23-4.534c0.126-0.187,0.245-0.376,0.356-0.567 c0.446-0.765,0.762-1.547,0.969-2.263c0.072-0.255,0.053-0.191,0.053-0.191l-0.001,0.005l-0.002,0.01l-0.004,0.016 c-0.005,0.019-0.007,0.029-0.007,0.029c-1.351,5.526-6.927,8.91-12.453,7.559c-5.526-1.351-8.91-6.927-7.559-12.453 c0.02-0.083,0.042-0.166,0.064-0.249L1645.635,1947.439z"/></g><g><defs><path id="SVGID_22_" d="M1616.769,1377.937c0,0,309.141,102.09,275.892,349.193 c-33.249,247.103-176.488,208.364-188.916,204.785c-13.615-3.921-105.793-56.675-14.358-198.74 c103.463-160.753-54.482-288.739-54.482-288.739l-41.262-30.792"/></defs><clipPath id="SVGID_23_"><use overflow="visible" xlink:href="#SVGID_22_"/></clipPath><g clip-path="url(#SVGID_23_)"><text transform="matrix(0 1 1 0 1699.8612 1291.8733)"><tspan x="0" y="0" fill="#FFF200" font-family="'OCRAStd'" font-size="31.409">pcollection | WindowInto(</tspan><tspan x="0" y="37.69" fill="#FFF200" font-family="'OCRAStd'" font-size="31.409"> FixedWindows(1 * 60),</tspan><tspan x="0" y="75.38" fill="#FFF200" font-family="'OCRAStd'" font-size="31.409"> trigger=Repeatedly(</tspan><tspan x="0" y="113.07" fill="#FFF200" font-family="'OCRAStd'" font-size="31.409"> AfterAny(AfterCount(100), AfterProcessingTime(1 * 60))),</tspan><tspan x="0" y="150.761" fill="#FFF200" font-family="'OCRAStd'" font-size="31.409"> accumulation_mode=AccumulationMode.DISCARDING)</tspan></text></g></g><g><g><defs><path id="SVGID_34_" d="M1616.769,1377.937c0,0,309.141,102.09,275.892,349.193 c-33.249,247.103-176.488,208.364-188.916,204.785c-13.615-3.921-105.793-56.675-14.358-198.74 c103.463-160.753-54.482-288.739-54.482-288.739l-41.262-30.792"/></defs><clipPath id="SVGID_24_"><use overflow="visible" xlink:href="#SVGID_34_"/></clipPath><linearGradient id="Arm_Front_Shadow_1_" x1="9954.192" x2="9972.51" y1="2006.394" y2="1808.371" gradientTransform="matrix(-1 0 0 1 11708.7344 0)" gradientUnits="userSpaceOnUse"><stop offset=".004" style="stop-color:#1d1d1b"/><stop offset="1" style="stop-color:#231f20;stop-opacity:0"/></linearGradient><path id="Arm_Front_Shadow_17_" fill="url(#Arm_Front_Shadow_1_)" d="M1606.396,1799.889 c4.763,15.375,10.527,30.477,17.759,44.869c14.203,28.262,34.463,53.762,61.892,70.125 c27.882,16.632,67.128,24.185,98.601,12.945c8.794-3.141,113.624-2.264,78.268-100.047 c1.094,3.025-40.547,40.596-124.051,45.973C1663.343,1878.617,1602.909,1788.632,1606.396,1799.889z" clip-path="url(#SVGID_24_)"/></g></g><g><defs><path id="SVGID_25_" d="M1798.783,695.978c-93.821-87.445-358.407-182.306-375.474-240.489h-1.418 c-17.067,58.183-281.652,153.044-375.474,240.489c-159.809,148.948-145.069,577.95,245.144,646.218 c0,0,64.704,9.422,133.854,10.265c66.109,3.717,128.224-10.265,128.224-10.265 C1943.852,1273.928,1958.592,844.926,1798.783,695.978z"/></defs><clipPath id="SVGID_26_"><use overflow="visible" xlink:href="#SVGID_25_"/></clipPath></g><g><defs><path id="SVGID_27_" d="M1226.906,1377.937c0,0-309.141,102.09-275.892,349.193c33.249,247.103,176.488,208.364,188.916,204.785 c13.615-3.921,105.793-56.675,14.358-198.74c-103.463-160.753,54.482-288.739,54.482-288.739l41.262-30.792"/></defs><clipPath id="SVGID_28_"><use overflow="visible" xlink:href="#SVGID_27_"/></clipPath><g clip-path="url(#SVGID_28_)"><text transform="matrix(0 -1 -1 0 1149.6683 2091.6692)"><tspan x="0" y="0" fill="#FFF200" font-family="'OCRAStd'" font-size="34.293">pcollection | WindowInto(</tspan><tspan x="0" y="41.152" fill="#FFF200" font-family="'OCRAStd'" font-size="34.293"> FixedWindows(1 * 60),</tspan><tspan x="0" y="82.304" fill="#FFF200" font-family="'OCRAStd'" font-size="34.293"> trigger=Repeatedly(</tspan><tspan x="0" y="123.456" fill="#FFF200" font-family="'OCRAStd'" font-size="34.293"> AfterAny(AfterCount(100), AfterProcessingTime(1 * 60))),</tspan><tspan x="0" y="164.608" fill="#FFF200" font-family="'OCRAStd'" font-size="34.293"> accumulation_mode=AccumulationMode.DISCARDING)</tspan></text></g></g><g><path id="Left_Eye_Shape_34_" fill="#FFF" stroke="#1D1D1B" stroke-miterlimit="10" stroke-width="10.299" d="M1557.462,913.887c-58.872,97.689-44.44,215.266,32.234,262.616s186.555,6.542,245.427-91.147 c58.872-97.689,44.44-215.266-32.234-262.616C1726.214,775.391,1616.333,816.198,1557.462,913.887z"/><path id="Left_Pupil_20_" fill="#1D1D1B" d="M1549.46,938.627c-36.066,69.503-15.668,147.874,45.56,175.045 c61.228,27.171,140.1-7.145,176.165-76.649s15.668-147.874-45.56-175.045C1664.397,834.806,1585.525,869.123,1549.46,938.627z"/><path id="Left_Eye_Reflection_22_" fill="#FFF" d="M1547.061,957.619c0.195,18.11,13.575,30.9,29.884,28.568 c16.309-2.332,29.371-18.903,29.176-37.013c-0.195-18.11-13.575-30.9-29.884-28.568 C1559.928,922.939,1546.866,939.51,1547.061,957.619z"/><g><defs><path id="Left_Eye_Shape_33_" d="M1557.462,913.887c-58.872,97.689-44.44,215.266,32.234,262.616s186.555,6.542,245.427-91.147 c58.872-97.689,44.44-215.266-32.234-262.616C1726.214,775.391,1616.333,816.198,1557.462,913.887z"/></defs><clipPath id="Left_Eye_Shape_1_"><use overflow="visible" xlink:href="#Left_Eye_Shape_33_"/></clipPath><linearGradient id="Left_Shadow_1_" x1="10033.776" x2="10046.005" y1="983.52" y2="1225.875" gradientTransform="matrix(-1 0 0 1 11708.7344 0)" gradientUnits="userSpaceOnUse"><stop offset=".342" style="stop-color:#fff"/><stop offset="1" style="stop-color:#1d1d1b"/></linearGradient><path id="Left_Shadow_20_" fill="url(#Left_Shadow_1_)" d="M1788.511,1089.355c-72.498,14.659-150.533,13.846-223.165-0.082c-26.745-5.129-53.521-11.865-79.829-20.253 c5.398,10.417,11.364,20.63,17.923,30.56c78.96,119.549,212.262,153.396,297.737,75.599 c30.865-28.092,45.054-66.696,54.808-110.445C1832.702,1075.94,1814.299,1084.141,1788.511,1089.355z" clip-path="url(#Left_Eye_Shape_1_)" opacity=".62"/></g></g><g><path id="Left_Eye_Shape_32_" fill="#FFF" stroke="#1D1D1B" stroke-miterlimit="10" stroke-width="10.299" d="M1291.431,913.887c58.872,97.689,44.44,215.266-32.234,262.616s-186.555,6.542-245.427-91.147 c-58.872-97.689-44.44-215.266,32.234-262.616C1122.678,775.391,1232.559,816.198,1291.431,913.887z"/><path id="Left_Pupil_19_" fill="#1D1D1B" d="M1299.433,938.627c36.066,69.503,15.668,147.874-45.56,175.045 c-61.228,27.171-140.1-7.145-176.165-76.649c-36.066-69.503-15.668-147.874,45.56-175.045 C1184.496,834.806,1263.367,869.123,1299.433,938.627z"/><path id="Left_Eye_Reflection_21_" fill="#FFF" d="M1301.831,957.619c-0.195,18.11-13.575,30.9-29.884,28.568 s-29.371-18.903-29.176-37.013s13.575-30.9,29.884-28.568C1288.964,922.939,1302.027,939.51,1301.831,957.619z"/><g><defs><path id="Left_Eye_Shape_31_" d="M1291.431,913.887c58.872,97.689,44.44,215.266-32.234,262.616s-186.555,6.542-245.427-91.147 c-58.872-97.689-44.44-215.266,32.234-262.616C1122.678,775.391,1232.559,816.198,1291.431,913.887z"/></defs><clipPath id="Left_Eye_Shape_2_"><use overflow="visible" xlink:href="#Left_Eye_Shape_31_"/></clipPath><linearGradient id="Left_Shadow_2_" x1="10538.324" x2="10550.554" y1="971.362" y2="1213.717" gradientTransform="matrix(-1 0 0 1 11708.7344 0)" gradientUnits="userSpaceOnUse"><stop offset=".342" style="stop-color:#fff"/><stop offset="1" style="stop-color:#1d1d1b"/></linearGradient><path id="Left_Shadow_19_" fill="url(#Left_Shadow_2_)" d="M1283.964,1077.197c-72.498,14.659-150.533,13.846-223.165-0.082c-26.745-5.129-53.52-11.865-79.829-20.253 c5.398,10.417,11.364,20.63,17.923,30.56c78.96,119.549,212.262,153.396,297.737,75.599 c30.865-28.092,45.054-66.696,54.808-110.445C1328.154,1063.782,1309.751,1071.983,1283.964,1077.197z" clip-path="url(#Left_Eye_Shape_2_)" opacity=".62"/></g></g><path fill="none" stroke="#1D1D1B" stroke-linecap="round" stroke-miterlimit="10" stroke-width="10.299" d="M1497.902,1179.79 c-35.335,47.303-99.925,49.203-137.539,0"/><g><defs><path id="SVGID_33_" d="M1226.906,1377.937c0,0-309.141,102.09-275.892,349.193c33.249,247.103,176.488,208.364,188.916,204.785 c13.615-3.921,105.793-56.675,14.358-198.74c-103.463-160.753,54.482-288.739,54.482-288.739l41.262-30.792"/></defs><clipPath id="SVGID_29_"><use overflow="visible" xlink:href="#SVGID_33_"/></clipPath><linearGradient id="Arm_Front_Shadow_2_" x1="6741.412" x2="6759.73" y1="2018.932" y2="1820.909" gradientTransform="matrix(1 0 0 1 -5653.2681 0)" gradientUnits="userSpaceOnUse"><stop offset=".004" style="stop-color:#1d1d1b"/><stop offset="1" style="stop-color:#231f20;stop-opacity:0"/></linearGradient><path id="Arm_Front_Shadow_16_" fill="url(#Arm_Front_Shadow_2_)" d="M1236.289,1812.427 c-4.763,15.375-10.527,30.477-17.76,44.869c-14.203,28.262-34.463,53.762-61.892,70.125 c-27.882,16.632-67.128,24.185-98.601,12.945c-8.794-3.141-113.624-2.264-78.268-100.047 c-1.094,3.025,40.547,40.596,124.051,45.973C1179.342,1891.155,1239.776,1801.17,1236.289,1812.427z" clip-path="url(#SVGID_29_)"/></g><path fill="none" stroke="#FFF200" stroke-linecap="round" stroke-linejoin="round" stroke-miterlimit="10" stroke-width="20.597" d="M1798.783,695.978c-93.821-87.445-358.407-182.306-375.474-240.489h-1.418c-17.067,58.183-281.652,153.044-375.474,240.489 c-159.809,148.948-145.069,577.95,245.144,646.218c0,0,64.704,9.422,133.854,10.265c66.109,3.717,128.224-10.265,128.224-10.265 C1943.852,1273.928,1958.592,844.926,1798.783,695.978z"/><path fill="none" stroke="#FFF200" stroke-linecap="round" stroke-linejoin="round" stroke-miterlimit="10" stroke-width="20.597" d="M1226.906,1377.937c0,0-309.141,102.09-275.892,349.193c33.249,247.103,176.488,208.364,188.916,204.785 c13.615-3.921,105.793-56.675,14.358-198.74c-103.463-160.753,54.482-288.739,54.482-288.739l41.262-30.792"/><path fill="none" stroke="#FFF200" stroke-linecap="round" stroke-linejoin="round" stroke-miterlimit="10" stroke-width="20.597" d="M1616.769,1377.937c0,0,309.141,102.09,275.892,349.193c-33.249,247.103-176.488,208.364-188.916,204.785 c-13.615-3.921-105.793-56.675-14.358-198.74c103.463-160.753-54.482-288.739-54.482-288.739l-41.262-30.792"/><g><path fill="#FF570B" d="M1213.29,719.571c-10.579-80.856-20.087-232.533-24.181-295.465 c-21.074-323.904-95.97-355.919-95.97-355.919s12.846,169.269,17.38,324.181c4.534,154.912,55.164,281.108,55.164,281.108"/><path fill="#FFF200" d="M1208.15,720.181l-2.815-20.833l-1.407-10.417c-0.479-3.469-0.833-6.98-1.256-10.468l-2.384-20.974 c-0.387-3.495-0.813-6.996-1.168-10.487l-1.062-10.473c-1.412-13.963-2.857-27.933-4.076-41.906 c-1.255-13.973-2.58-27.946-3.731-41.923c-1.177-13.977-2.341-27.958-3.418-41.938l-3.24-41.943 c-1.078-13.982-2.087-27.959-3.085-41.937l-1.64-20.893l-0.83-10.477l-0.974-10.392c-0.675-6.927-1.252-13.85-2.005-20.777 l-2.279-20.779c-1.699-13.824-3.325-27.656-5.362-41.417c-0.503-3.441-0.93-6.896-1.495-10.324l-1.639-10.295 c-0.557-3.429-1.068-6.869-1.663-10.289l-1.832-10.251c-0.626-3.413-1.186-6.842-1.866-10.242l-2.034-10.199 c-1.292-6.817-2.872-13.553-4.351-20.317c-0.717-3.389-1.565-6.738-2.385-10.094l-2.472-10.066l-2.67-9.996 c-0.452-1.663-0.874-3.338-1.349-4.992l-1.456-4.952c-3.8-13.234-8.148-26.264-13.144-38.939 c-1.187-3.203-2.567-6.297-3.877-9.43c-1.277-3.154-2.76-6.178-4.161-9.253c-0.689-1.546-1.44-3.048-2.207-4.54l-2.269-4.494 c-0.78-1.479-1.605-2.922-2.404-4.386c-0.798-1.464-1.602-2.924-2.476-4.32c-3.337-5.725-7.04-11.13-11.022-16.046 c-0.986-1.245-2.04-2.365-3.05-3.559c-1.063-1.067-2.089-2.252-3.172-3.212c-1.062-1.031-2.15-1.958-3.195-2.776l-0.779-0.598 l-0.73-0.499c-0.257-0.188-0.442-0.283-0.639-0.406l-0.146-0.092l-0.068-0.034l-0.057-0.033c-0.025-0.015-0.02-0.012,0.078,0.036 l0.211,0.092l14.297-10.235l1.379,19.128c0.465,6.378,0.899,12.752,1.294,19.124l2.458,38.236l1.229,19.118l0.604,9.56 l0.519,9.565l2.056,38.262l1.959,38.266c0.313,6.379,0.682,12.753,0.95,19.135l0.686,19.156l1.372,38.31l1.259,38.312 l0.627,18.986l0.776,19.12c0.139,3.181,0.237,6.385,0.409,9.548l0.712,9.38l0.706,9.383c0.247,3.131,0.409,6.254,0.724,9.392 c1.369,12.552,2.465,25.142,4.33,37.648l1.271,9.395c0.222,1.565,0.401,3.135,0.658,4.695l0.766,4.679l3.057,18.724l3.483,18.656 l0.874,4.665l0.983,4.643l1.965,9.288c0.672,3.092,1.271,6.202,2.004,9.281l2.17,9.244l2.173,9.246l2.334,9.205l2.347,9.205 l2.51,9.159c1.625,6.123,3.462,12.179,5.23,18.259c0.86,3.049,1.842,6.053,2.757,9.083c0.92,3.029,1.863,6.048,2.856,9.047 c0.973,3.008,1.948,6.016,2.982,8.991c1.004,2.977,2.07,5.988,3.121,8.846l0.04,0.107c1.088,2.96-0.428,6.241-3.388,7.33 c-2.887,1.062-6.086-0.367-7.25-3.185c-1.27-3.083-2.442-6.045-3.594-9.072c-1.175-3.008-2.282-6.03-3.387-9.053 c-1.128-3.018-2.201-6.049-3.251-9.087c-1.045-3.04-2.16-6.062-3.149-9.118c-1.998-6.108-4.046-12.205-5.89-18.36l-2.836-9.214 l-2.672-9.261l-2.659-9.267l-2.454-9.322l-2.443-9.327c-0.823-3.107-1.513-6.247-2.276-9.369l-2.237-9.381l-1.119-4.691 l-1.009-4.716l-4.025-18.871c-2.321-12.654-4.791-25.288-6.624-38.036c-2.149-12.698-3.53-25.513-5.177-38.294 c-0.688-6.428-1.223-12.903-1.813-19.357l-0.865-9.691c-0.219-3.203-0.361-6.374-0.545-9.563l-1.046-19.108l-0.908-19.255 l-1.793-38.17l-1.68-38.171l-0.84-19.085c-0.319-6.361-0.74-12.72-1.104-19.081l-2.268-38.159l-2.171-38.164l-0.538-9.541 l-0.624-9.536l-1.268-19.072l-2.535-38.143c-0.797-12.724-1.845-25.397-2.7-38.102l-0.023-0.342 c-0.376-5.582,3.845-10.412,9.427-10.788c1.726-0.116,3.421,0.228,4.893,0.895l0.508,0.232l0.371,0.184l0.523,0.276l0.51,0.279 l0.416,0.249c0.552,0.333,1.125,0.677,1.58,1c0.478,0.328,0.975,0.66,1.433,0.993l1.307,0.999 c1.711,1.343,3.277,2.71,4.729,4.118c1.522,1.388,2.803,2.848,4.194,4.281c1.259,1.475,2.59,2.927,3.777,4.43 c4.819,5.987,9.01,12.213,12.714,18.601c0.976,1.581,1.859,3.192,2.733,4.806c0.875,1.614,1.781,3.218,2.628,4.841l2.453,4.895 c0.828,1.629,1.635,3.264,2.37,4.92c1.496,3.304,3.08,6.585,4.426,9.93c1.384,3.335,2.841,6.651,4.081,10.023 c5.234,13.418,9.712,27.025,13.602,40.739l1.49,5.137c0.485,1.714,0.916,3.439,1.376,5.158l2.718,10.322l2.457,10.368 c0.812,3.457,1.653,6.909,2.356,10.382c1.454,6.939,3.011,13.863,4.269,20.828l1.984,10.433c0.663,3.477,1.203,6.97,1.81,10.454 l1.773,10.457c0.576,3.487,1.063,6.984,1.599,10.476l1.573,10.478c0.543,3.491,0.945,6.995,1.424,10.491 c1.921,13.987,3.516,27.999,5.012,42.017l2.008,21.042c0.662,7.015,1.152,14.066,1.736,21.096l0.838,10.55l0.682,10.488 l1.353,21.04l2.396,41.964l2.429,41.946l2.574,41.928c0.81,13.981,1.793,27.94,2.705,41.91 c0.873,13.976,2.005,27.915,2.976,41.877c0.926,13.984,2.233,27.841,3.35,41.767c0.298,3.481,0.524,6.955,0.881,10.443 l1.041,10.46l2.082,20.92l0.001,0.015c0.283,2.845-1.794,5.381-4.639,5.664C1211.012,724.916,1208.524,722.928,1208.15,720.181z"/></g><g><defs><path id="SVGID_30_" d="M1213.29,719.571c-10.579-80.856-20.087-232.533-24.181-295.465 c-21.074-323.904-95.97-355.919-95.97-355.919s12.846,169.269,17.38,324.181c4.534,154.912,55.164,281.108,55.164,281.108"/></defs><clipPath id="SVGID_31_"><use overflow="visible" xlink:href="#SVGID_30_"/></clipPath></g><g><path fill="#FF570B" d="M1617.442,719.571c10.579-80.856,20.087-232.533,24.181-295.465 c21.074-323.904,95.97-355.919,95.97-355.919s-12.846,169.269-17.38,324.181c-4.534,154.912-55.164,281.108-55.164,281.108"/><path fill="#FFF200" d="M1612.302,718.961l2.082-20.92l1.041-10.46c0.357-3.488,0.583-6.962,0.882-10.443 c1.117-13.926,2.424-27.783,3.35-41.767c0.971-13.962,2.103-27.901,2.976-41.877c0.913-13.97,1.896-27.929,2.705-41.91 l2.574-41.928l2.429-41.946l2.396-41.964l1.353-21.04l0.682-10.488l0.838-10.55c0.584-7.03,1.074-14.081,1.736-21.096 l2.008-21.042c1.497-14.019,3.092-28.03,5.012-42.017c0.479-3.497,0.882-7.001,1.424-10.491l1.573-10.478 c0.536-3.492,1.024-6.988,1.599-10.476l1.773-10.457c0.607-3.484,1.147-6.977,1.81-10.454l1.984-10.433 c1.258-6.965,2.814-13.889,4.269-20.828c0.703-3.473,1.544-6.926,2.356-10.382l2.457-10.368l2.718-10.322 c0.46-1.719,0.891-3.444,1.376-5.158l1.49-5.137c3.889-13.714,8.368-27.32,13.602-40.739c1.24-3.372,2.697-6.688,4.081-10.023 c1.346-3.346,2.93-6.626,4.426-9.93c0.734-1.656,1.542-3.291,2.37-4.92l2.453-4.895c0.848-1.622,1.753-3.227,2.628-4.841 c0.875-1.614,1.757-3.225,2.733-4.806c3.704-6.388,7.896-12.614,12.714-18.601c1.187-1.503,2.518-2.955,3.777-4.43 c1.391-1.433,2.672-2.893,4.194-4.281c1.453-1.408,3.019-2.776,4.729-4.118l1.307-0.999c0.458-0.333,0.955-0.664,1.433-0.993 c0.455-0.323,1.028-0.667,1.58-1l0.416-0.249l0.51-0.279l0.523-0.276l0.371-0.184l0.508-0.232c5.088-2.327,11.099-0.089,13.426,5 c0.719,1.573,1.002,3.234,0.9,4.848l-0.028,0.388c-0.855,12.705-1.903,25.378-2.7,38.102l-2.535,38.143l-1.268,19.072 l-0.624,9.536l-0.538,9.541l-2.171,38.164l-2.268,38.159c-0.365,6.36-0.786,12.72-1.104,19.081l-0.84,19.085l-1.68,38.171 l-1.793,38.17l-0.908,19.255l-1.046,19.108c-0.184,3.189-0.326,6.36-0.545,9.563l-0.865,9.691 c-0.59,6.454-1.125,12.929-1.813,19.357c-1.648,12.782-3.028,25.596-5.177,38.294c-1.833,12.748-4.303,25.382-6.624,38.036 l-4.025,18.871l-1.009,4.716l-1.119,4.691l-2.237,9.381c-0.763,3.122-1.453,6.262-2.276,9.369l-2.443,9.327l-2.454,9.322 l-2.659,9.267l-2.672,9.261l-2.836,9.214c-1.844,6.154-3.892,12.252-5.89,18.36c-0.989,3.056-2.103,6.078-3.149,9.118 c-1.05,3.038-2.124,6.07-3.251,9.087c-1.105,3.023-2.213,6.044-3.387,9.053c-1.151,3.027-2.324,5.989-3.594,9.072 c-1.201,2.916-4.538,4.306-7.454,3.106c-2.845-1.171-4.237-4.376-3.189-7.239l0.044-0.118c1.051-2.858,2.117-5.87,3.121-8.846 c1.035-2.976,2.009-5.983,2.982-8.991c0.994-2.998,1.936-6.018,2.856-9.047c0.915-3.03,1.897-6.034,2.757-9.083 c1.768-6.081,3.605-12.136,5.23-18.259l2.51-9.159l2.347-9.205l2.334-9.205l2.173-9.246l2.17-9.244 c0.733-3.079,1.332-6.189,2.004-9.281l1.965-9.288l0.983-4.643l0.874-4.665l3.483-18.656l3.057-18.724l0.766-4.679 c0.256-1.56,0.436-3.13,0.657-4.695l1.271-9.395c1.864-12.505,2.961-25.096,4.33-37.648c0.315-3.138,0.477-6.262,0.724-9.392 l0.706-9.383l0.712-9.38c0.172-3.163,0.27-6.367,0.409-9.548l0.776-19.12l0.627-18.986l1.259-38.312l1.372-38.31l0.686-19.156 c0.268-6.382,0.637-12.756,0.95-19.135l1.959-38.266l2.056-38.262l0.519-9.565l0.604-9.56l1.229-19.118l2.458-38.236 c0.395-6.371,0.829-12.746,1.294-19.124l1.379-19.128l14.297,10.235l0.211-0.092c0.098-0.048,0.103-0.05,0.078-0.036 l-0.057,0.033l-0.068,0.034l-0.146,0.092c-0.196,0.122-0.381,0.217-0.639,0.406l-0.73,0.499l-0.779,0.598 c-1.045,0.817-2.133,1.745-3.195,2.776c-1.083,0.96-2.109,2.145-3.172,3.212c-1.01,1.194-2.065,2.313-3.05,3.559 c-3.983,4.916-7.686,10.321-11.022,16.046c-0.874,1.396-1.677,2.856-2.476,4.32c-0.799,1.464-1.624,2.907-2.404,4.386 l-2.269,4.494c-0.766,1.491-1.517,2.994-2.207,4.54c-1.401,3.075-2.884,6.099-4.162,9.253c-1.31,3.132-2.69,6.226-3.877,9.43 c-4.996,12.674-9.344,25.704-13.144,38.939l-1.456,4.952c-0.475,1.655-0.898,3.329-1.349,4.992l-2.67,9.996l-2.472,10.066 c-0.821,3.357-1.669,6.705-2.385,10.094c-1.479,6.764-3.059,13.5-4.351,20.317l-2.034,10.199 c-0.68,3.399-1.24,6.829-1.866,10.242l-1.832,10.251c-0.596,3.42-1.106,6.86-1.664,10.289l-1.639,10.295 c-0.565,3.428-0.992,6.884-1.495,10.324c-2.037,13.761-3.663,27.592-5.362,41.417l-2.279,20.779 c-0.753,6.927-1.331,13.85-2.005,20.777l-0.974,10.392l-0.83,10.477l-1.64,20.893c-0.998,13.978-2.007,27.955-3.085,41.937 l-3.24,41.943c-1.077,13.981-2.241,27.962-3.418,41.938c-1.151,13.977-2.476,27.95-3.731,41.923 c-1.219,13.973-2.663,27.943-4.076,41.906l-1.062,10.473c-0.355,3.491-0.781,6.992-1.168,10.487l-2.384,20.974 c-0.423,3.488-0.777,6.999-1.256,10.468l-1.407,10.417l-2.815,20.833c-0.383,2.833-2.99,4.82-5.823,4.437 c-2.77-0.374-4.73-2.874-4.459-5.633L1612.302,718.961z"/></g><g><defs><path id="SVGID_32_" d="M1617.442,719.571c10.579-80.856,20.087-232.533,24.181-295.465 c21.074-323.904,95.97-355.919,95.97-355.919s-12.846,169.269-17.38,324.181c-4.534,154.912-55.164,281.108-55.164,281.108"/></defs><clipPath id="SVGID_36_"><use overflow="visible" xlink:href="#SVGID_32_"/></clipPath><g clip-path="url(#SVGID_36_)"><text transform="matrix(0 1 -1 0 1747.6649 -251.1174)"><tspan x="0" y="0" fill="#FFF200" font-family="'OCRAStd'" font-size="33.077">@on_timer(WATERMARK_TIMER)</tspan><tspan x="0" y="39.692" fill="#FFF200" font-family="'OCRAStd'" font-size="33.077"> def on_expiry_1(self,</tspan><tspan x="0" y="79.385" fill="#FFF200" font-family="'OCRAStd'" font-size="33.077"> timestamp=beam.DoFn.TimestampParam,</tspan><tspan x="0" y="119.077" fill="#FFF200" font-family="'OCRAStd'" font-size="33.077"> window=beam.DoFn.WindowParam,</tspan><tspan x="0" y="158.77" fill="#FFF200" font-family="'OCRAStd'" font-size="33.077"> key=beam.DoFn.KeyParam,</tspan><tspan x="0" y="198.462" fill="#FFF200" font-family="'OCRAStd'" font-size="33.077"> buffer_1=beam.DoFn.StateParam(BUFFER_STATE_1),</tspan><tspan x="0" y="238.155" fill="#FFF200" font-family="'OCRAStd'" font-size="33.077"> buffer_2=beam.DoFn.StateParam(BUFFER_STATE_2)):</tspan></text></g></g><g><defs><path id="SVGID_37_" d="M1215.551,719.571c-10.579-80.856-20.087-232.533-24.181-295.465 c-21.074-323.904-95.97-355.919-95.97-355.919s12.846,169.269,17.38,324.181c4.534,154.912,55.164,281.108,55.164,281.108"/></defs><clipPath id="SVGID_38_"><use overflow="visible" xlink:href="#SVGID_37_"/></clipPath><g clip-path="url(#SVGID_38_)"><text transform="matrix(0 1 1 0 969.0638 -280.7521)"><tspan x="0" y="0" fill="#FFF200" font-family="'OCRAStd'" font-size="33.077">@on_timer(WATERMARK_TIMER)</tspan><tspan x="0" y="39.692" fill="#FFF200" font-family="'OCRAStd'" font-size="33.077"> def on_expiry_1(self,</tspan><tspan x="0" y="79.385" fill="#FFF200" font-family="'OCRAStd'" font-size="33.077"> timestamp=beam.DoFn.TimestampParam,</tspan><tspan x="0" y="119.077" fill="#FFF200" font-family="'OCRAStd'" font-size="33.077"> window=beam.DoFn.WindowParam,</tspan><tspan x="0" y="158.77" fill="#FFF200" font-family="'OCRAStd'" font-size="33.077"> key=beam.DoFn.KeyParam,</tspan><tspan x="0" y="198.462" fill="#FFF200" font-family="'OCRAStd'" font-size="33.077"> buffer_1=beam.DoFn.StateParam(BUFFER_STATE_1),</tspan><tspan x="0" y="238.155" fill="#FFF200" font-family="'OCRAStd'" font-size="33.077"> buffer_2=beam.DoFn.StateParam(BUFFER_STATE_2)):</tspan></text></g></g><g><defs><path id="SVGID_39_" d="M1617.442,719.571c10.579-80.856,20.087-232.533,24.181-295.465 c21.074-323.904,95.97-355.919,95.97-355.919s-12.846,169.269-17.38,324.181c-4.534,154.912-55.164,281.108-55.164,281.108"/></defs><clipPath id="SVGID_40_"><use overflow="visible" xlink:href="#SVGID_39_"/></clipPath></g><linearGradient id="SVGID_41_" x1="1189.758" x2="1162.775" y1="913.381" y2="482.367" gradientUnits="userSpaceOnUse"><stop offset=".004" style="stop-color:#1d1d1b"/><stop offset="1" style="stop-color:#231f20;stop-opacity:0"/></linearGradient><path fill="url(#SVGID_41_)" d="M1127.729,506.722c0,0,33.055,62.69,71.809-5.699c-6.269,50.152,14.818,221.126,14.818,221.126 S1149.956,719.49,1127.729,506.722z"/><linearGradient id="SVGID_42_" x1="4891.261" x2="4864.277" y1="913.381" y2="482.367" gradientTransform="matrix(-1 0 0 1 6530.2769 0)" gradientUnits="userSpaceOnUse"><stop offset=".004" style="stop-color:#1d1d1b"/><stop offset="1" style="stop-color:#231f20;stop-opacity:0"/></linearGradient><path fill="url(#SVGID_42_)" d="M1701.045,506.722c0,0-33.055,62.69-71.809-5.699c6.269,50.152-14.818,221.126-14.818,221.126 S1678.818,719.49,1701.045,506.722z"/><g><path fill="#FFF200" d="M1208.15,720.181l-2.815-20.833l-1.407-10.417c-0.479-3.469-0.833-6.98-1.256-10.468l-2.384-20.974 c-0.387-3.495-0.813-6.996-1.168-10.487l-1.062-10.473c-1.412-13.963-2.857-27.933-4.076-41.906 c-1.255-13.973-2.58-27.946-3.731-41.923c-1.177-13.977-2.341-27.958-3.418-41.938l-3.24-41.943 c-1.078-13.982-2.087-27.959-3.085-41.937l-1.64-20.893l-0.83-10.477l-0.974-10.392c-0.675-6.927-1.252-13.85-2.005-20.777 l-2.279-20.779c-1.699-13.824-3.325-27.656-5.362-41.417c-0.503-3.441-0.93-6.896-1.495-10.324l-1.639-10.295 c-0.557-3.429-1.068-6.869-1.663-10.289l-1.832-10.251c-0.626-3.413-1.186-6.842-1.866-10.242l-2.034-10.199 c-1.292-6.817-2.872-13.553-4.351-20.317c-0.717-3.389-1.565-6.738-2.385-10.094l-2.472-10.066l-2.67-9.996 c-0.452-1.663-0.874-3.338-1.349-4.992l-1.456-4.952c-3.8-13.234-8.148-26.264-13.144-38.939 c-1.187-3.203-2.567-6.297-3.877-9.43c-1.277-3.154-2.76-6.178-4.161-9.253c-0.689-1.546-1.44-3.048-2.207-4.54l-2.269-4.494 c-0.78-1.479-1.605-2.922-2.404-4.386c-0.798-1.464-1.602-2.924-2.476-4.32c-3.337-5.725-7.04-11.13-11.022-16.046 c-0.986-1.245-2.04-2.365-3.05-3.559c-1.063-1.067-2.089-2.252-3.172-3.212c-1.062-1.031-2.15-1.958-3.195-2.776l-0.779-0.598 l-0.73-0.499c-0.257-0.188-0.442-0.283-0.639-0.406l-0.146-0.092l-0.068-0.034l-0.057-0.033c-0.025-0.015-0.02-0.012,0.078,0.036 l0.211,0.092l14.297-10.235l1.379,19.128c0.465,6.378,0.899,12.752,1.294,19.124l2.458,38.236l1.229,19.118l0.604,9.56 l0.519,9.565l2.056,38.262l1.959,38.266c0.313,6.379,0.682,12.753,0.95,19.135l0.686,19.156l1.372,38.31l1.259,38.312 l0.627,18.986l0.776,19.12c0.139,3.181,0.237,6.385,0.409,9.548l0.712,9.38l0.706,9.383c0.247,3.131,0.409,6.254,0.724,9.392 c1.369,12.552,2.465,25.142,4.33,37.648l1.271,9.395c0.222,1.565,0.401,3.135,0.658,4.695l0.766,4.679l3.057,18.724l3.483,18.656 l0.874,4.665l0.983,4.643l1.965,9.288c0.672,3.092,1.271,6.202,2.004,9.281l2.17,9.244l2.173,9.246l2.334,9.205l2.347,9.205 l2.51,9.159c1.625,6.123,3.462,12.179,5.23,18.259c0.86,3.049,1.842,6.053,2.757,9.083c0.92,3.029,1.863,6.048,2.856,9.047 c0.973,3.008,1.948,6.016,2.982,8.991c1.004,2.977,2.07,5.988,3.121,8.846l0.04,0.107c1.088,2.96-0.428,6.241-3.388,7.33 c-2.887,1.062-6.086-0.367-7.25-3.185c-1.27-3.083-2.442-6.045-3.594-9.072c-1.175-3.008-2.282-6.03-3.387-9.053 c-1.128-3.018-2.201-6.049-3.251-9.087c-1.045-3.04-2.16-6.062-3.149-9.118c-1.998-6.108-4.046-12.205-5.89-18.36l-2.836-9.214 l-2.672-9.261l-2.659-9.267l-2.454-9.322l-2.443-9.327c-0.823-3.107-1.513-6.247-2.276-9.369l-2.237-9.381l-1.119-4.691 l-1.009-4.716l-4.025-18.871c-2.321-12.654-4.791-25.288-6.624-38.036c-2.149-12.698-3.53-25.513-5.177-38.294 c-0.688-6.428-1.223-12.903-1.813-19.357l-0.865-9.691c-0.219-3.203-0.361-6.374-0.545-9.563l-1.046-19.108l-0.908-19.255 l-1.793-38.17l-1.68-38.171l-0.84-19.085c-0.319-6.361-0.74-12.72-1.104-19.081l-2.268-38.159l-2.171-38.164l-0.538-9.541 l-0.624-9.536l-1.268-19.072l-2.535-38.143c-0.797-12.724-1.845-25.397-2.7-38.102l-0.023-0.342 c-0.376-5.582,3.845-10.412,9.427-10.788c1.726-0.116,3.421,0.228,4.893,0.895l0.508,0.232l0.371,0.184l0.523,0.276l0.51,0.279 l0.416,0.249c0.552,0.333,1.125,0.677,1.58,1c0.478,0.328,0.975,0.66,1.433,0.993l1.307,0.999 c1.711,1.343,3.277,2.71,4.729,4.118c1.522,1.388,2.803,2.848,4.194,4.281c1.259,1.475,2.59,2.927,3.777,4.43 c4.819,5.987,9.01,12.213,12.714,18.601c0.976,1.581,1.859,3.192,2.733,4.806c0.875,1.614,1.781,3.218,2.628,4.841l2.453,4.895 c0.828,1.629,1.635,3.264,2.37,4.92c1.496,3.304,3.08,6.585,4.426,9.93c1.384,3.335,2.841,6.651,4.081,10.023 c5.234,13.418,9.712,27.025,13.602,40.739l1.49,5.137c0.485,1.714,0.916,3.439,1.376,5.158l2.718,10.322l2.457,10.368 c0.812,3.457,1.653,6.909,2.356,10.382c1.454,6.939,3.011,13.863,4.269,20.828l1.984,10.433c0.663,3.477,1.203,6.97,1.81,10.454 l1.773,10.457c0.576,3.487,1.063,6.984,1.599,10.476l1.573,10.478c0.543,3.491,0.945,6.995,1.424,10.491 c1.921,13.987,3.516,27.999,5.012,42.017l2.008,21.042c0.662,7.015,1.152,14.066,1.736,21.096l0.838,10.55l0.682,10.488 l1.353,21.04l2.396,41.964l2.429,41.946l2.574,41.928c0.81,13.981,1.793,27.94,2.705,41.91 c0.873,13.976,2.005,27.915,2.976,41.877c0.926,13.984,2.233,27.841,3.35,41.767c0.298,3.481,0.524,6.955,0.881,10.443 l1.041,10.46l2.082,20.92l0.001,0.015c0.283,2.845-1.794,5.381-4.639,5.664C1211.012,724.916,1208.524,722.928,1208.15,720.181z"/></g><g><path fill="#FFF200" d="M1612.302,718.961l2.082-20.92l1.041-10.46c0.357-3.488,0.583-6.962,0.882-10.443 c1.117-13.926,2.424-27.783,3.35-41.767c0.971-13.962,2.103-27.901,2.976-41.877c0.913-13.97,1.896-27.929,2.705-41.91 l2.574-41.928l2.429-41.946l2.396-41.964l1.353-21.04l0.682-10.488l0.838-10.55c0.584-7.03,1.074-14.081,1.736-21.096 l2.008-21.042c1.497-14.019,3.092-28.03,5.012-42.017c0.479-3.497,0.882-7.001,1.424-10.491l1.573-10.478 c0.536-3.492,1.024-6.988,1.599-10.476l1.773-10.457c0.607-3.484,1.147-6.977,1.81-10.454l1.984-10.433 c1.258-6.965,2.814-13.889,4.269-20.828c0.703-3.473,1.544-6.926,2.356-10.382l2.457-10.368l2.718-10.322 c0.46-1.719,0.891-3.444,1.376-5.158l1.49-5.137c3.889-13.714,8.368-27.32,13.602-40.739c1.24-3.372,2.697-6.688,4.081-10.023 c1.346-3.346,2.93-6.626,4.426-9.93c0.734-1.656,1.542-3.291,2.37-4.92l2.453-4.895c0.848-1.622,1.753-3.227,2.628-4.841 c0.875-1.614,1.757-3.225,2.733-4.806c3.704-6.388,7.896-12.614,12.714-18.601c1.187-1.503,2.518-2.955,3.777-4.43 c1.391-1.433,2.672-2.893,4.194-4.281c1.453-1.408,3.019-2.776,4.729-4.118l1.307-0.999c0.458-0.333,0.955-0.664,1.433-0.993 c0.455-0.323,1.028-0.667,1.58-1l0.416-0.249l0.51-0.279l0.523-0.276l0.371-0.184l0.508-0.232c5.088-2.327,11.099-0.089,13.426,5 c0.719,1.573,1.002,3.234,0.9,4.848l-0.028,0.388c-0.855,12.705-1.903,25.378-2.7,38.102l-2.535,38.143l-1.268,19.072 l-0.624,9.536l-0.538,9.541l-2.171,38.164l-2.268,38.159c-0.365,6.36-0.786,12.72-1.104,19.081l-0.84,19.085l-1.68,38.171 l-1.793,38.17l-0.908,19.255l-1.046,19.108c-0.184,3.189-0.326,6.36-0.545,9.563l-0.865,9.691 c-0.59,6.454-1.125,12.929-1.813,19.357c-1.648,12.782-3.028,25.596-5.177,38.294c-1.833,12.748-4.303,25.382-6.624,38.036 l-4.025,18.871l-1.009,4.716l-1.119,4.691l-2.237,9.381c-0.763,3.122-1.453,6.262-2.276,9.369l-2.443,9.327l-2.454,9.322 l-2.659,9.267l-2.672,9.261l-2.836,9.214c-1.844,6.154-3.892,12.252-5.89,18.36c-0.989,3.056-2.103,6.078-3.149,9.118 c-1.05,3.038-2.124,6.07-3.251,9.087c-1.105,3.023-2.213,6.044-3.387,9.053c-1.151,3.027-2.324,5.989-3.594,9.072 c-1.201,2.916-4.538,4.306-7.454,3.106c-2.845-1.171-4.237-4.376-3.189-7.239l0.044-0.118c1.051-2.858,2.117-5.87,3.121-8.846 c1.035-2.976,2.009-5.983,2.982-8.991c0.994-2.998,1.936-6.018,2.856-9.047c0.915-3.03,1.897-6.034,2.757-9.083 c1.768-6.081,3.605-12.136,5.23-18.259l2.51-9.159l2.347-9.205l2.334-9.205l2.173-9.246l2.17-9.244 c0.733-3.079,1.332-6.189,2.004-9.281l1.965-9.288l0.983-4.643l0.874-4.665l3.483-18.656l3.057-18.724l0.766-4.679 c0.256-1.56,0.436-3.13,0.657-4.695l1.271-9.395c1.864-12.505,2.961-25.096,4.33-37.648c0.315-3.138,0.477-6.262,0.724-9.392 l0.706-9.383l0.712-9.38c0.172-3.163,0.27-6.367,0.409-9.548l0.776-19.12l0.627-18.986l1.259-38.312l1.372-38.31l0.686-19.156 c0.268-6.382,0.637-12.756,0.95-19.135l1.959-38.266l2.056-38.262l0.519-9.565l0.604-9.56l1.229-19.118l2.458-38.236 c0.395-6.371,0.829-12.746,1.294-19.124l1.379-19.128l14.297,10.235l0.211-0.092c0.098-0.048,0.103-0.05,0.078-0.036 l-0.057,0.033l-0.068,0.034l-0.146,0.092c-0.196,0.122-0.381,0.217-0.639,0.406l-0.73,0.499l-0.779,0.598 c-1.045,0.817-2.133,1.745-3.195,2.776c-1.083,0.96-2.109,2.145-3.172,3.212c-1.01,1.194-2.065,2.313-3.05,3.559 c-3.983,4.916-7.686,10.321-11.022,16.046c-0.874,1.396-1.677,2.856-2.476,4.32c-0.799,1.464-1.624,2.907-2.404,4.386 l-2.269,4.494c-0.766,1.491-1.517,2.994-2.207,4.54c-1.401,3.075-2.884,6.099-4.162,9.253c-1.31,3.132-2.69,6.226-3.877,9.43 c-4.996,12.674-9.344,25.704-13.144,38.939l-1.456,4.952c-0.475,1.655-0.898,3.329-1.349,4.992l-2.67,9.996l-2.472,10.066 c-0.821,3.357-1.669,6.705-2.385,10.094c-1.479,6.764-3.059,13.5-4.351,20.317l-2.034,10.199 c-0.68,3.399-1.24,6.829-1.866,10.242l-1.832,10.251c-0.596,3.42-1.106,6.86-1.664,10.289l-1.639,10.295 c-0.565,3.428-0.992,6.884-1.495,10.324c-2.037,13.761-3.663,27.592-5.362,41.417l-2.279,20.779 c-0.753,6.927-1.331,13.85-2.005,20.777l-0.974,10.392l-0.83,10.477l-1.64,20.893c-0.998,13.978-2.007,27.955-3.085,41.937 l-3.24,41.943c-1.077,13.981-2.241,27.962-3.418,41.938c-1.151,13.977-2.476,27.95-3.731,41.923 c-1.219,13.973-2.663,27.943-4.076,41.906l-1.062,10.473c-0.355,3.491-0.781,6.992-1.168,10.487l-2.384,20.974 c-0.423,3.488-0.777,6.999-1.256,10.468l-1.407,10.417l-2.815,20.833c-0.383,2.833-2.99,4.82-5.823,4.437 c-2.77-0.374-4.73-2.874-4.459-5.633L1612.302,718.961z"/></g></g></switch></svg>